<svg xmlns="http://www.w3.org/2000/svg" viewBox="0 0 3000 2678" width="3000" height="2678"><g transform="translate(1044.642857142857 913.9285714285714) rotate(0.0 170.8928571428571 68.03571428571428) scale(1.0602148879429303 1.0552262781809116)"><svg width="322.374" height="128.95" viewBox="0 0 322.374 128.95"><path d="M57.039 0h208.297c31.481 0 57.039 25.558 57.039 57.039v71.911H0V57.039C0 25.558 25.558 0 57.039 0z" fill="#ffcf2d"/><g fill="#9b3c82"><path d="M64.475 0h64.475v64.475H64.475zM0 64.475h64.475v64.475H0zm128.95 0h64.475v64.475H128.95zm128.95 0h64.475v64.475H257.9zM193.425 0H257.9v64.475h-64.475z"/></g></svg></g><g transform="translate(173.57142857142856 1017.8571428571428) rotate(0.0 1328.5714285714287 726.9642857142858) scale(1.073019929210683 1.072758254098722)"><svg width="2476.322" height="1355.318" viewBox="0 0 2476.322 1355.318"><clipPath id="a"><path d="M2291.431 736.364C2229.608 607.88 2098.199 519.2 1946.076 519.2h-127.622l-227.636-258.748C1445.159 94.886 1235.301 0 1014.782 0 665.9 0 355.204 220.715 240.35 550.148L171.345 746.73c-90.37 72.182-148.062 181.96-148.062 304.909 0 27.925 2.976 55.172 8.635 81.452 3.178 14.757 16.328 25.231 31.423 25.231h97.613c23.231 0 42.756-17.449 45.375-40.532l.032-.277c16.261-136.463 132.341-241.764 272.614-241.764 140.164 0 256.174 105.139 272.576 241.448.023.189.046.389.068.597 2.521 23.105 22.186 40.527 45.428 40.527h882.278c23.231 0 42.756-17.449 45.375-40.532l.032-.276c16.261-136.463 132.341-241.764 272.614-241.764h.001c140.165 0 256.174 105.139 272.575 241.449.023.189.046.389.068.597 2.521 23.104 22.186 40.526 45.427 40.526h97.563c15.095 0 28.245-10.474 31.423-25.231 5.659-26.281 8.635-53.527 8.635-81.452 0-128.988-63.495-243.484-161.609-315.275zM396.742 519.2c85.691-218.661 278.184-374.674 504.783-416.405v415.92zm578.936-.557V93.369a676.58 676.58 0 0 1 47.984-1.709c181.063 0 353.372 77.909 472.969 213.851l186.906 212.451-707.86.681z"/></clipPath><circle cx="479.109" cy="1095.856" fill="#5b2448" r="259.462"/><circle cx="479.109" cy="1095.856" fill="#9b3c82" r="116.944"/><circle cx="1996.888" cy="1095.856" fill="#5b2448" r="259.462"/><circle cx="1996.888" cy="1095.856" fill="#9b3c82" r="116.944"/><path d="m49.355 993.022-3.443-1.262C9.65 978.472-9.004 938.242 4.285 901.98l7.626-20.812c13.288-36.263 53.519-54.916 89.781-41.627l3.444 1.261zM2371.18 840.824l3.443-1.262c36.263-13.288 76.493 5.365 89.781 41.627l7.627 20.812c13.288 36.263-5.365 76.493-41.628 89.782l-3.443 1.261z" fill="#ffcf2d"/><path d="M2291.431 736.364C2229.608 607.88 2098.199 519.2 1946.076 519.2h-127.622l-227.636-258.748C1445.159 94.886 1235.301 0 1014.782 0 665.9 0 355.204 220.715 240.35 550.148L171.345 746.73c-90.37 72.182-148.062 181.96-148.062 304.909 0 27.925 2.976 55.172 8.635 81.452 3.178 14.757 16.328 25.231 31.423 25.231h97.613c23.231 0 42.756-17.449 45.375-40.532l.032-.277c16.261-136.463 132.341-241.764 272.614-241.764 140.164 0 256.174 105.139 272.576 241.448.023.189.046.389.068.597 2.521 23.105 22.186 40.527 45.428 40.527h882.278c23.231 0 42.756-17.449 45.375-40.532l.032-.276c16.261-136.463 132.341-241.764 272.614-241.764h.001c140.165 0 256.174 105.139 272.575 241.449.023.189.046.389.068.597 2.521 23.104 22.186 40.526 45.427 40.526h97.563c15.095 0 28.245-10.474 31.423-25.231 5.659-26.281 8.635-53.527 8.635-81.452 0-128.988-63.495-243.484-161.609-315.275zM396.742 519.2c85.691-218.661 278.184-374.674 504.783-416.405v415.92zm578.936-.557V93.369a676.58 676.58 0 0 1 47.984-1.709c181.063 0 353.372 77.909 472.969 213.851l186.906 212.451-707.86.681z" fill="#21a0aa"/><g fill="#6ce0dc"><path d="M938.601 1120.513a3 3 0 0 1-3-3v-598.87a3 3 0 1 1 6 0v598.87a3 3 0 0 1-3 3zm200.083-487.846h-138.152a3 3 0 1 1 0-6h138.152a3 3 0 1 1 0 6z"/><path d="M1647.715 1120.513H831.427a3 3 0 1 1 0-6h816.288a3 3 0 1 1 0 6zm34.026-240.018a3 3 0 0 1-3-3V566.467a3 3 0 1 1 6 0v311.028a3 3 0 0 1-3 3z"/></g><path d="M1642.726 439.074h41.136c22.345 0 40.486 18.141 40.486 40.486v46.421c0 22.345-18.141 40.486-40.486 40.486h-41.136z" fill="#5b2448"/><g clip-path="url(#a)" fill="#6ce0dc"><path d="M820.858 1161.323a3 3 0 0 1-2.885-3.83c9.962-34.656 15.014-70.656 15.014-106.997 0-217.713-181.296-394.835-404.138-394.835-93.675 0-184.979 32.027-257.094 90.182a3 3 0 0 1-3.766-4.671c35.955-28.996 76.283-51.603 119.861-67.195 45.097-16.135 92.535-24.316 140.998-24.316 55.358 0 109.063 10.595 159.622 31.491 48.837 20.185 92.698 49.081 130.364 85.886 37.671 36.811 67.248 79.678 87.909 127.411 21.395 49.425 32.242 101.927 32.242 156.047 0 36.902-5.13 73.459-15.248 108.655a3.001 3.001 0 0 1-2.881 2.172zm836.226 0a3 3 0 0 1-2.881-2.172c-10.096-35.113-15.214-71.586-15.214-108.407 0-53.997 10.823-106.38 32.168-155.692 20.615-47.625 50.125-90.395 87.71-127.121 37.58-36.722 81.342-65.552 130.067-85.691 50.444-20.849 104.026-31.42 159.259-31.42 89.135 0 173.858 27.519 245.01 79.581a2.999 2.999 0 1 1-3.543 4.841c-70.116-51.304-153.614-78.422-241.467-78.422-222.327 0-403.204 176.714-403.204 393.924 0 36.26 5.04 72.176 14.979 106.749a3 3 0 0 1-2.885 3.83zM901.841 108.865a3 3 0 0 1-.538-5.951 678.83 678.83 0 0 1 74.162-9.414 3 3 0 0 1 .426 5.986 672.486 672.486 0 0 0-73.504 9.33 2.99 2.99 0 0 1-.546.05zm-.776 409.617a3 3 0 0 1-.003-6l74.612-.072h.003a3 3 0 0 1 .003 6l-74.612.072z"/></g></svg></g><g transform="translate(1098.2142857142858 637.5) rotate(0.0 421.07142857142856 585.0) scale(0.9986278396096966 0.998719590268886)"><svg width="843.3" height="1171.5" viewBox="0 0 843.3 1171.5"><path d="M593.2 497.3c19.3 98.2 135.8 218.8 171.2 202.2 29.1-13.7-79.1-159.9-171.2-202.2z" fill="#5b2448"/><path d="M838.3 509.1c-12.5 76.8-50.5 124.3-88.3 154.3-.4.3-.9.7-1.3 1-30.1 23.3-65.2 39.2-102.6 46.5h-.1l-1.8.3c-.9.2-1.8.3-2.6.4-4.3.7-6.7.9-6.7.9l-1.6-8.5-40-206.7c12-1.7 24-3 35.9-3.8 0 0 36.9-93.1 27-193.5s-29.1-165.5-58.3-220.6c-28.1-53.1-15.6-56.2 6.8-30.7s32.8 36.9 32.8 36.9-17.4-35.5-26-54.1-7.5-30.5 10.9-13 17.2 18.2 25 27c-28.6-46.3-20.7-54-4.7-38 18.7 18.7 27 30.2 37.5 42.7-10.4-21.8-19.8-48.9 2.6-24.9C709.6 54.2 872.2 300 838.3 509.1z" fill="#f4ada2"/><g fill="#9b3c82"><path d="M669.7 83.5c.3 0 .6-.1.9-.2 1-.5 1.4-1.7.9-2.7-.9-1.8-21.4-43.7-38-60 2.9 6.1 7 13.8 12.6 23 11.5 17.9 21.6 38.5 21.8 38.8.4.7 1.1 1.1 1.8 1.1zm25-10.4c.3 0 .7-.1 1-.2 1-.5 1.3-1.7.8-2.7-.1-.2-12.2-22.4-25.4-41.7 2 6 5.1 13.5 8.4 20.5 7.7 12.7 13.4 23 13.5 23.1.3.6 1 1 1.7 1zm-46 34.1c-10.7-10.5-16.9-14-20.7-11.8-5.3 3.1-2.5 15 2.8 35.9 1.9 7.3 3.8 14.9 5.2 21.9.2 1.1 1.3 1.8 2.3 1.6 1.1-.2 1.8-1.3 1.6-2.3-1.4-7.1-3.3-14.7-5.2-22.1-2.1-8.2-4.1-15.9-5-21.9-1.3-8.3.2-9.4.3-9.5.3-.2 3.2-1.2 15.9 11.2 17.4 17.2 32.5 36.6 44.9 57.7.4.6 1 1 1.8 1 .3 0 .7-.1 1-.2 1-.5 1.3-1.8.8-2.7-12.6-21.6-28-41.3-45.7-58.8zm8.5 390.4c.8 0 1.6-.5 1.9-1.3.4-1-.2-2.2-1.2-2.5-8.8-2.8-17.9-4.1-27.2-4.3-.7 2.1-1.3 3.4-1.5 4 9.3.1 18.5 1.3 27.3 4.1.3-.1.5 0 .7 0zm92.7 165.7c-.4.3-.9.7-1.3 1-30.1 23.3-65.2 39.2-102.6 46.5h-.1l-1.8.3c-.9.2-1.8.3-2.6.4l-8.3-7.6-40-206.7c27.3 72.3 107.5 146.5 156.7 166.1z"/></g><path d="M256.7 599.6c-12.5 25-59.3 78-59.3 78l77.1 373 279.7-113.9S517.8 732.8 395 595.5z" fill="#f94f46"/><path d="M298.3 935.6C209.9 918-9.7 988.7 2.8 1049c13.8 66.5 295.5-113.4 295.5-113.4z" fill="#5b2448"/><path d="M683.2 940.8s-4.2 11.4-101.5 52.8-202.3 162.5-339.9 176.6c-110.7 11.3-170.4-57.2-188.2-126.8-4.2-16.2-6.1-33-5.7-49.8 46.7-37 87.8-57.1 122.5-67.1 47.8-13.7 83.5-8.3 104.8-1.4 15.1 4.9 23 10.4 23 10.4l-4.2 17.7c29.4-14.9 61.1-28.2 92.9-39.7s63.5-21.3 92.8-29.2c19.3-8.1 32.8-15.4 51.6-29.9s47.9-49.9 41.6-16.6c-1.7 9.6-5.2 18.8-10.2 27.2 26.7-5.1 45.6-7.2 51.9-6.4 22.9 3.1 22.9 19.8 22.9 19.8 16.6 7.3 15.6 22.9 15.6 22.9 8 4.3 13.7 11.9 15.6 20.8 10.4 3.1 14.5 18.7 14.5 18.7z" fill="#f4ada2"/><path d="M565.3 860.4c-21.6 4.6-43 9-65.2 14.4-6 3.2-13.5 6.7-20.4 9.6 28.7-7.5 56.3-13.7 83-19.3.9-1.5 1.8-3.1 2.6-4.7zm33.1 20.2c-.6.4-1 1-1 1.7 0 1.1.9 2 2 2 .4 0 .7-.1 1-.3 15.1-8.9 29.5-7.9 37.1-5.6 0-.3-.1-2.1-.9-4.5-8.7-2-23.2-2.1-38.2 6.7zm14.6 24.8c-.6.4-.9 1-.9 1.7 0 1.1.9 2 2 2 .4 0 .8-.1 1.1-.3 13.3-8.7 28.7-10.3 37.9-7.5 0-.3.2-1.7-.3-4.1-10.3-2.6-26.1-.9-39.8 8.2zm17.2 21.2c-.6.4-1 1-1 1.7 0 1.1.9 2 2 2 .4 0 .7-.1 1-.3 11.4-6.8 25.1-9.5 36.5-7.9-.3-1.4-.8-3.1-1.3-4.5-11.9-1.1-25.6 2.1-37.2 9zM180.8 1022c0 1.1.9 2 2 2 .5 0 .9-.2 1.3-.5 25-21.3 65.4-47.1 110.1-70.4l1.2-5.1c-46.1 23.9-88.1 50.5-113.9 72.5-.4.4-.7.9-.7 1.5z" fill="#9b3c82"/><path d="M403.9 313.5c-11.7-3.3-24.2-.9-33.8 6.6-18.6-35.2-66.9-19.4-68.3 10.4-39.2-19.7-74.1 26.6-54.1 55.3 7.3 10.5 20.4 33 18.9 53.5 18.2 4.5 57.1 39.6 57.1 39.6s59.6-86.1 86.6-100.1c33.6-17.6 18.4-57.6-6.4-65.3z" fill="#5b2448"/><path d="M353.3 340.9c-.2 1.4.8 2.6 2.2 2.8h.3c1.3 0 2.3-.9 2.5-2.2 1.6-12.7 10.5-20.6 16.5-24.5-1.6.9-3.1 1.9-4.6 3.1-.8-1.5-1.6-2.8-2.5-4.1-6.2 5-12.9 13-14.4 24.9z" fill="#9b3c82"/><path d="M460.7 486.5c3 10.1-.2 22-9.7 30.4-24.8 21.8-63.7 21.1-63.7 21.1s.1 21.7 7.8 57.5c3.1 77-112.4 34.3-138.4 4.2 0 0 23.9-46.8 33-89.8-20.4 1.6-55.6-12.7-56.5-40.7-.5-16 13.2-32 30.1-30.8 16.4 1.2 24.3 9.2 39.6 20.1 14.3 10.1 16.1 2.3 20.6-14.5 3.7-13.4 9.9-26.1 18.3-37.2 14.4-18.5 46.6-25.7 68.4-28 3.4 16.2 7.9 32.2 13.5 47.8 9.6 27.4 29.9 36.3 37 59.9z" fill="#f4ada2"/><path d="m342.1 422.2-.3-1.7c-.1-.5-.1-1-.2-1.5-.1-1-.1-2 0-3 .1-2 .5-4 1.1-5.9 1.3-4.1 3.5-7.7 6.4-10.8 1.5-1.6 3.3-3 5.2-4.2 1.9-1.1 4.1-2 6.3-2.5s4.4-.6 6.6-.4 4.3.9 6.1 1.9c2.4 1.4 3.2 4.5 1.9 6.9-.3.5-.6.9-1 1.2l-.7.6c-1.4 1.2-2.6 2.1-3.7 3-1.1.8-2 1.7-2.9 2.4-1.7 1.5-3.2 2.7-4.9 4.2-1.6 1.4-3.3 3.2-5.2 5.1l-2.9 3.1c-.5.5-1 1.1-1.6 1.7-1.2 1.3-2.8 2.3-4.5 2.9-.9.3-1.9.3-2.8.2-1.3-.3-2.3-1.1-2.8-2.3 0-.3-.1-.6-.1-.9zm11.2 12.3c4.4-2 15.2-6.4 24.5-13.9 1.3-1 3.2-.8 4.2.5 2.7 3.4 6 9.6-.9 13.9-8.6 5.2-24.1 5.5-28.2 2.1-.6-.6-.7-1.5-.2-2.2.2-.2.4-.3.6-.4zm61.6-22.7c-4.6 1.6-8.1 2-17 2.7-1.7.1-2.9 1.6-2.8 3.2.3 4.3 3.3 8.1 10.2 7.4 7.7-.8 11.2-7.3 11.7-11.8.1-.9-.5-1.6-1.4-1.7-.3.1-.5.2-.7.2z" fill="#5b2448"/><path d="M305.9 506.7c-.6-1.2-2.2-1.7-3.4-1.1-4.8 2.5-9.2 3.8-12.9 4.3-.3 1.7-.7 3.5-1.1 5.2 5.7-.6 11.2-2.3 16.3-5.1 1.3-.6 1.8-2.1 1.1-3.3z" fill="#9b3c82"/><path d="M393.9 384c-1.4 1.4-2.5 3-3.2 4.9-.9 2.4.3 5 2.6 5.9.4.2.9.3 1.4.3h.8c1.7.1 3 0 4.3 0h3.4c2 .1 3.8.1 5.8.2 1.6.1 3.3.2 5.2.4-1.5-5.6-2.8-11.3-4-17-3.3.4-6.9.8-10.6 1.4-.3.1-.6.2-.9.4-1.7.9-3.4 2.1-4.8 3.5zm-4.3 182.5h.2c-2.6-18.2-2.6-28.6-2.6-28.6s-25.5-2.2-40.7-12.4c-4.2 4 1.9 37.7 43.1 41z" fill="#5b2448"/><circle cx="351.1" cy="471.6" fill="#e57281" opacity=".52" r="20.2"/><path d="M418.6 470.7c-.9 1.7-2.1 3.2-3.7 4.4-1.5 1.1-3.1 2.1-4.9 2.7-3.5 1.3-7.4 1.6-11.1.8-1.8-.4-3.6-1.2-5.3-2.1-1.6-1-3.1-2.2-4.4-3.6-2.6-2.8-4.1-6.4-4.1-10.2 0-1.2 1-2.2 2.3-2.2.9 0 1.8.6 2.1 1.5v.1c.9 2.4 2.4 4.6 4.3 6.3.9.8 2 1.5 3.1 2.1s2.3 1 3.5 1.3c2.5.5 5.1.5 7.6-.1 2.5-.5 4.9-1.7 6.8-3.5l.1-.1c.9-.8 2.3-.8 3.2.1.8.6.9 1.7.5 2.5zm-124.9 13.5c-.9 0-1.7-.5-2.2-1.3-13.5-24.1-34.5-18.3-35.4-18-1.3.4-2.7-.4-3.1-1.7s.4-2.7 1.7-3.1c.3-.1 25.7-7.3 41.2 20.4.7 1.2.2 2.7-1 3.4-.4.2-.8.3-1.2.3z" fill="#9b3c82"/><path d="M408.5 449c-1.1 0-2-.9-2-2 0-.5.2-1 .6-1.4 3.1-3.3 4.6-5.7 4.4-7.4-.2-1.9-2.5-3.6-6.3-6.2-10.7-7.4-10-14.5-9.9-14.8.1-1.1 1.1-1.9 2.2-1.7 1.1.1 1.8 1.1 1.7 2.2 0 .2-.2 5.3 8.2 11.1 4.1 2.8 7.6 5.2 8 9 .3 3-1.4 6.2-5.5 10.6-.4.4-.9.6-1.4.6z" fill="#5b2448"/><path d="M395.1 595.4c8.3-44.4 129-91.6 198.2-98.2 12 68 119.1 212.6 171.2 202.2 0 0-115.5 62.4-264.3 67.6z" fill="#f94f46"/><path d="M298.3 935.6c-100.9 4.2-209.1 54.1-244.6 107.8-4.2-16.2-6.1-33-5.7-49.8 46.7-37 87.8-57.1 122.5-67.1 40.3-3.9 80.2-5.7 104.8-1.4 11.5 2.1 19.6 5.5 23 10.5z" fill="#9b3c82"/><path d="M244.2 619.4C202.4 597.6 110 663.1 45.5 832.7-16.4 995.4 2.8 1049 2.8 1049s-3.1-33.3 70.7-69.7c66.4-32.8 172.7-52 224.7-43.7.1 0 43.8-265.2-54-316.2z" fill="#f94f46"/><path d="M292.9 689.2c8.7 28.4 13.6 64.3 14.6 106.7 1.7 72.3-8.9 139.3-9 140l4.9.8c.1-.7 10.7-68 9.1-140.8-1-42.8-5.9-79.2-14.8-108-3.3-10.8-7.2-20.5-11.5-29.2 30.2 33.5 53.6 56.6 71 60.6 1.6.4 3.3.6 5 .6 3.9.1 7.7-1.5 10.4-4.3 10.1-10.8 6.2-40 2.1-59.7l2.1 4.5C395.3 699 418.4 747 413.5 761c-2.3 6.5-13.9 9.5-18.2 10.1-1 .1-1.7 1-1.7 2 0 1.1.9 2 2 2h.3c.7-.1 17.8-2.7 21.4-12.8 5.5-15.6-17-62.4-36.8-103.7-1.4-3-2.9-5.9-4.2-8.8 7.2 8.1 14.8 15.9 22.8 23.3 13.6 12.4 32.6 21.9 40.8 15.2 5.7-4.6 4.9-15.3-2.3-31.7 19.4 28 42.3 65.3 63.5 110.7 1.4-.1 2.9-.1 4.3-.2-28.1-60.3-59.1-106.6-81.4-136-.1-.1-.2-.2-.3-.4-14.5-19.2-25.3-31.1-28.9-35l-2.9.1-1.3 1.3c.3.3 12.3 12.8 30 36.2 23.8 39.7 19.6 49.5 16.7 51.9-5.4 4.4-21.7-2.4-35.6-15-15.5-14.1-30.8-32.7-32-34v-.1l-.4-.4c-.2-.1-.3-.2-.5-.2h-.1c-.2 0-.3-.1-.5-.1h-.1c-.2 0-.3 0-.5.1-.1 0-.1 0-.1.1h-.1c-.1 0-.1.1-.2.1l-.1.1-.2.2-.1.1-.2.2s0 .1-.1.1c0 .1-.1.2-.1.2v.1c0 .1-.1.2-.1.3v1c3 10.6 5.4 21.4 7.1 32.3 3.4 22 2.1 36.7-3.5 42.7-2.7 2.9-6.5 3.7-11.6 2.6-20.4-4.7-52.3-40.6-83.2-75.3-.1-.1-.2-.2-.3-.2-7.9-10.6-17.1-18.8-27.4-24.4-.9 1.4-1.9 2.8-2.9 4.1 21.4 11.2 37.7 34.6 48.4 69.4z" fill="#fcb6b1"/><path d="M399.8 746.8c1.9 0 3.5-1.5 3.5-3.5s-1.5-3.5-3.5-3.5-3.5 1.5-3.5 3.5 1.6 3.5 3.5 3.5zm-10.1-41.6c-1.9 0-3.5 1.5-3.5 3.5s1.5 3.5 3.5 3.5 3.5-1.5 3.5-3.5-1.6-3.5-3.5-3.5z" fill="#fcb6b1"/><path d="M737.2 157c-.6 0-1.2-.3-1.6-.8-11.6-15.2-36.1-29.8-60.3-28.2-1.1.1-2.1-.8-2.1-1.9-.1-1.1.8-2.1 1.9-2.1 22.6-1.4 49.4 11.1 63.7 29.8.7.9.5 2.1-.4 2.8-.3.3-.8.4-1.2.4z" fill="#9b3c82"/></svg></g></svg>