<svg height="1669.276" viewBox="0 0 1210.421 1669.276" width="1210.421" xmlns="http://www.w3.org/2000/svg" xmlns:xlink="http://www.w3.org/1999/xlink"><radialGradient id="a" cx="409.588" cy="1569.835" fx="409.588" fy="1569.835" gradientTransform="matrix(.543614 -.83933534 .73693643 .47729309 -970.551 1163.942)" gradientUnits="userSpaceOnUse" r="108.78"><stop offset="0" stop-color="#7ed8fd"/><stop offset="1" stop-color="#80d7fc" stop-opacity="0"/></radialGradient><linearGradient id="b" gradientUnits="userSpaceOnUse" x1="147.022" x2="665.879" y1="1275.954" y2="1275.954"><stop offset=".345" stop-color="#e02641"/><stop offset="1" stop-color="#cb1c35"/></linearGradient><radialGradient id="c" cx="210.849" cy="1525.151" fx="210.849" fy="1525.151" gradientTransform="matrix(.70003734 -.71410624 1.21683703 1.19286363 -1793.124 -144.109)" gradientUnits="userSpaceOnUse" r="147.047"><stop offset="0" stop-color="#ffb2d2" stop-opacity=".7"/><stop offset="1" stop-color="#ffb2d2" stop-opacity="0"/></radialGradient><radialGradient id="d" cx="328.845" cy="1425.542" gradientUnits="userSpaceOnUse" r="188.365"><stop offset="0" stop-color="#fcfbb1"/><stop offset="1" stop-color="#fdf8f0" stop-opacity="0"/></radialGradient><radialGradient id="e" cx="1137.445" cy="372.155" fx="1137.445" fy="372.155" gradientTransform="matrix(.07409108 .99725148 -.81076545 .06023605 1389.296 -724.48)" r="94.072" xlink:href="#a"/><radialGradient id="f" cx="155.138" cy="689.603" gradientTransform="matrix(.84162391 .54006406 -.28461376 .4435358 220.788 300.041)" gradientUnits="userSpaceOnUse" r="236.124"><stop offset="0" stop-color="#a1d638"/><stop offset="1" stop-color="#a1d638" stop-opacity="0"/></radialGradient><radialGradient id="g" cx="1053.978" cy="1471.309" fx="1053.978" fy="1471.309" gradientTransform="matrix(.46496567 -.88532871 .82158505 .43148814 -644.386 1769.837)" r="150.867" xlink:href="#a"/><radialGradient id="h" cx="1114.895" cy="1057.46" fx="1114.895" fy="1057.46" gradientTransform="matrix(.6839107 .72956573 -.36770113 .34469099 741.149 -120.343)" r="187.597" xlink:href="#c"/><clipPath id="i"><path d="m561.278 182.421c-.892 7.094 7.977 14.28 19.668 16.05 11.541 1.748 21.547-2.444 22.487-9.363.943-6.941-7.575-14.125-19.162-16.048-11.74-1.948-22.098 2.242-22.993 9.36z"/></clipPath><clipPath id="j"><path d="m643.889 195.906c-.983 6.749 6.963 13.527 17.623 15.139 10.53 1.592 19.796-2.459 20.817-9.049 1.024-6.611-6.614-13.389-17.181-15.139-10.699-1.773-20.273 2.279-21.259 9.05z"/></clipPath><radialGradient id="k" cx="600.043" cy="148.553" gradientTransform="matrix(1 0 0 1.143 0 -21.216)" gradientUnits="userSpaceOnUse" r="155.261"><stop offset=".739" stop-color="#fdf8f0"/><stop offset="1" stop-color="#c7d0d1"/></radialGradient><clipPath id="l"><path d="m463.348 135.574c-1.043 61.553 12.745 107 15.809 112.106s11.234 14.809 22.468 15.319c7.214.328 20.426-6.638 25.021-17.362 4.048-9.445 10.213-80.681 10.213-80.681 62.773-35.975 136.565-30.306 162.893 12.255-.381 33.407-9.554 71.273-18.362 99.279 0 0 12.179 7.628 26.022-5.321 15.83-14.809 26.043-84.255 27.085-135.596.888-43.738-269.795-79.94-271.149 0z"/></clipPath><radialGradient id="m" cx="666.327" cy="6.77" fx="666.327" fy="6.77" gradientTransform="matrix(.80754747 .58980258 -.36154898 .4950266 130.684 -389.582)" gradientUnits="userSpaceOnUse" r="111.976"><stop offset="0" stop-color="#fcd203" stop-opacity=".6"/><stop offset="1" stop-color="#fad302" stop-opacity="0"/></radialGradient><radialGradient id="n" cx="825.964" cy="612.124" fx="825.964" fy="612.124" r="67.787" xlink:href="#m"/><path d="m1103.369 596.805s-48.255 58.213-90.128 56.681c-41.872-1.532-25.277-58.723-25.277-58.723l115.404 2.043z" fill="#f8b098"/><path d="m669.326 370.593c0 1.532-143.489 210.894-143.489 210.894l-40.34-231.83 183.83 20.936z" fill="#fdf8f0"/><path d="m476.305 235.273c-15.83 57.191 21.447 165.957 86.298 172.085 58.135 5.493 93.447-50.043 93.447-50.043s-163.915-179.234-179.745-122.043z" fill="#f8b098"/><path d="m528.39 767.614-1.532-10.723-308.75 46.999c-36.718 5.536-68.605 28.439-85.267 61.625-64.93 129.323 395.549-97.901 395.549-97.901z" fill="#c7d0d1"/><path d="m47.059 1315.2 228.182-34.012 10.34-68.553z" fill="#c7d0d1"/><path d="m47.059 1315.2-40.837-188.784c-23.871-106.355 22.31-216.148 115.025-273.465l51.237-31.675 83.404 422.918z" fill="#c7d0d1"/><path d="m612.611 1147.266-84.221-379.653-300.282 45.276c-36.718 5.536-68.605 28.439-85.267 61.625-64.93 129.323-91.695 278.968-95.782 440.686l207.887-70.686 2.295 11.78z" fill="#fdf8f0"/><path d="m208.992 1437.402c-2.528 0-5.015-1.195-6.57-3.426l-68.508-98.294c-6.107-8.762-7.658-19.594-4.254-29.719 3.403-10.124 11.183-17.819 21.343-21.113l106.834-34.633c4.203-1.362 8.714.94 10.077 5.143 1.362 4.203-.94 8.715-5.144 10.077l-106.834 34.633c-5.289 1.715-9.339 5.721-11.111 10.991-1.772 5.271-.965 10.91 2.214 15.472l68.508 98.294c2.526 3.625 1.636 8.611-1.989 11.137-1.393.971-2.989 1.438-4.567 1.438z" fill="#c7d0d1"/><path d="m498.943 1439.831c30.853 119.463-17.279 222.31-99.975 229.098-75.408 6.189-152.986-71.103-179.086-172.159s5.787-200.683 76.682-224.345c77.747-25.949 171.526 47.943 202.379 167.406z" fill="#17191f"/><path d="m415.763 1460.656c18.537 71.774-8.145 135.228-56.926 141.392-46.064 5.821-95.109-42.139-111.817-106.833s3.881-126.914 48.172-139.599c46.904-13.433 102.035 33.266 120.572 105.04z" fill="#c7d0d1"/><path d="m415.763 1460.656c18.537 71.774-8.145 135.228-56.926 141.392-46.064 5.821-95.109-42.139-111.817-106.833s3.881-126.914 48.172-139.599c46.904-13.433 102.035 33.266 120.572 105.04z" fill="url(#a)"/><path d="m334.73 1474.545c3.932 15.225-1.331 29.149-11.637 31.078-10.176 1.904-21.446-8.631-25.289-23.511s1.126-28.743 11.213-30.991c10.216-2.276 21.781 8.199 25.713 23.424z" fill="#6e7477"/><path d="m243.326 1161.316 117.575-21.702-40.341-70.468z" fill="#c7d0d1"/><path d="m238.347 1138.593-10.377-42.139c-3.778-15.341 3.654-31.239 17.846-38.18l156.285-76.425c3.485-1.704 7.239-2.791 11.096-3.213l222.937-24.384 66.894 134.298z" fill="#17191f"/><path d="m251.624 1220.805c-8.177-33.752 9.819-68.359 42.145-81.048l159.813-62.732c8.227-3.23 16.81-5.468 25.567-6.668l172.815-23.68 116.553 387.702-429.319 70.851-87.574-284.426z" fill="url(#b)"/><path d="m242.435 1161.277c-5.646 0-10.964-3.439-13.089-9.03-2.747-7.228.886-15.313 8.113-18.06l211.08-80.222c9.23-3.617 18.889-6.133 28.71-7.478l172.815-23.68c7.665-1.049 14.722 4.31 15.771 11.97s-4.31 14.721-11.97 15.771l-172.815 23.68c-7.647 1.048-15.167 3.009-22.352 5.829-.047.019-.095.037-.142.055l-211.15 80.248c-1.637.622-3.318.917-4.971.917z" fill="#c7d0d1"/><path d="m286.266 1196.117s-57.416 24.55-78.812 64.774c-19.149 36-18.383 179.234 3.308 267.237 16.477-2.937 233.181-41.569 233.181-41.569-22.021-129.923-79.51-297.881-157.677-290.442z" fill="#e02641"/><path d="m286.266 1196.117s-57.416 24.55-78.812 64.774c-19.149 36-18.383 179.234 3.308 267.237 16.477-2.937 233.181-41.569 233.181-41.569-22.021-129.923-79.51-297.881-157.677-290.442z" fill="url(#c)"/><path d="m443.94 1489.059c-1.197 0-2.255-.863-2.462-2.083-12.376-73.022-33.364-144.493-57.582-196.087-20.752-44.211-54.401-96.038-96.999-92.319-3.175 1.406-27.133 12.306-48.648 30.189-1.063.883-2.639.737-3.521-.325-.883-1.062-.737-2.638.324-3.521 23.558-19.581 49.966-30.982 50.23-31.095.237-.102.489-.166.746-.19 19.286-1.837 38.305 6.472 56.521 24.694 16.019 16.022 31.452 39.723 45.872 70.443 24.402 51.987 45.537 123.927 57.985 197.376.231 1.361-.686 2.652-2.047 2.883-.142.024-.282.036-.421.036z" fill="#b51239"/><path d="m586.901 1370.064s46.34 4.979 60.128 19.532c13.787 14.553 14.17 29.489 14.17 29.489l-270.383 79.277-18.383-41.745c61.847-90.257 129.482-143.654 214.468-86.553z" fill="#a1d638"/><path d="m528.39 1424.039c32.522-12.689 92.446-33.553 130.308-19.236 2.514.951 4.295 3.227 4.701 5.884 1.139 7.446 1.888 13.498 2.29 17.003.232 2.02-.766 3.969-2.539 4.963-12.677 7.102-65.48 35.431-129.866 52.305-11.264 2.952-57.166 22.602-73.021 25.532-37.581 6.944-61.683 3.35-69.822 1.634-1.853-.391-3.276-1.865-3.615-3.728l-2.521-13.864s110.383-57.344 144.085-70.493z" fill="#fff3e6"/><path d="m395.346 674.88s3.031 88.009 33.306 132.472 229.249 185.137 229.249 185.137c-15.065 27.3-14.625 44.527 3.064 50.553 2.98 131.414 8.253 219.97 17.851 285.574 0 0-6.799 9.252-9.192 15.319-3.077 7.803-4.596 94.979 9.192 101.106 0 0 98.042-117.957 150.127-125.617 40.285-5.924 62.809-1.532 62.809-1.532s4.596-52.766-5.519-61.946l-18.992-10.054s-29.106-309.362-58.213-353.787c-35.31-53.894-289.532-269.617-289.532-269.617l-124.151 52.391z" fill="#ffcb96"/><path d="m171.752 624.021s-15.319 76.596 3.064 127.149 179.234 263.489 179.234 263.489c-15.065 27.3-14.625 44.527 3.064 50.553 2.98 131.414 7.253 249.97 16.851 315.574 0 0-6.799 9.252-9.192 15.319-2.293 5.814-3.72 55.692 1.404 83.278 1.644 8.85 12.735 11.938 18.682 5.18 26.979-30.656 97.71-106.862 139.233-112.969 40.285-5.924 62.809-1.532 62.809-1.532s-4.213-13.021-4.596-23.362c-.246-6.643 2.353-19.134 4.243-27.218 1.058-4.525-1.06-9.192-5.166-11.366l-18.992-10.054s-.234-291.447-16.319-329.362-106.234-180.766-106.234-180.766l-121.32-188.067-146.766 24.152z" fill="#ffcb96"/><path d="m171.752 624.021s-15.319 76.596 3.064 127.149 179.234 263.489 179.234 263.489c-15.065 27.3-14.625 44.527 3.064 50.553 2.98 131.414 7.253 249.97 16.851 315.574 0 0-6.799 9.252-9.192 15.319-2.293 5.814-3.72 55.692 1.404 83.278 1.644 8.85 12.735 11.938 18.682 5.18 26.979-30.656 97.71-106.862 139.233-112.969 40.285-5.924 62.809-1.532 62.809-1.532s-4.213-13.021-4.596-23.362c-.246-6.643 2.353-19.134 4.243-27.218 1.058-4.525-1.06-9.192-5.166-11.366l-18.992-10.054s-.234-291.447-16.319-329.362-106.234-180.766-106.234-180.766l-121.32-188.067-146.766 24.152z" fill="url(#d)"/><path d="m515.707 912.835c-.857 0-1.692-.441-2.158-1.234-37.241-63.406-91.345-140.757-91.887-141.531-.446-.636-.57-1.443-.337-2.184s.797-1.332 1.526-1.598l49.915-18.255c1.299-.474 2.732.193 3.207 1.489.474 1.297-.193 2.732-1.489 3.207l-46.868 17.141c9.863 14.201 56.815 82.282 90.246 139.2.699 1.19.301 2.722-.89 3.422-.397.233-.833.345-1.264.345z" fill="#ffe5c9"/><path d="m679.199 432.149c-31.787 61.66-72.383 139.021-86.17 171.191-4.128 43.252-28.639 51.678-82.256 64.699-78.47 19.057-314.127-16.444-314.127-16.444-105.604-68.542 18.711-244.797 114.894-407.872 0 0 109.188 28.947 197.656-25.436-61.787 17.617-37.06 57.774-33.614 124.372 2.211 42.728 66.043 83.745 70.383 118.979-2.592 34.562-11.022 55.124-16.383 75.422 15.702-17.617 40.447-71.278 44.724-76.954 28.085-37.277 95.844-106.71 97.923-101.04 10.181 27.77 13.134 53.797 6.971 73.082z" fill="#5ab5d0"/><path d="m614.336 313.401s27.574-58.213 121.021-30.638c49.483 14.602 171.714 105.344 197.756 134.45 26.043 29.106 70.468 81.191 73.532 91.915 3.064 10.723-2.298 29.872-2.298 29.872s21.957 7.66 26.426 21.83c4.468 14.17-76.979 85.915-82.723 87.319-5.745 1.404-19.532-9.191-19.532-9.191s-41.362-.383-68.936-8.043-51.277-46.982-75.841-80.442c0 0-14.553-2.681-22.213-13.021-7.209-9.732-8.426-23.745-8.426-23.745s-6.255 6.128-22.468 3.83-77.538-15.293-127.022 8.8c27.175-49.018 67.946-139.459 61.884-188.426-2.729-22.045-49.138-2.022-51.16-24.511z" fill="#5ab5d0"/><path d="m753.105 516.208c-.925 0-1.813-.515-2.248-1.402-11.267-23.023 2.694-72.488 12.887-108.606 4.356-15.436 9.271-32.85 8.331-36.793-1.418.221-6.553 2.557-19.226 21.935-7.989 12.215-14.869 24.988-14.938 25.115-.654 1.217-2.17 1.672-3.385 1.019-1.216-.653-1.673-2.169-1.019-3.385.069-.129 7.038-13.068 15.142-25.462 15.339-23.46 21.589-25.15 25.328-24 5.862 1.804 3.185 12.44-5.42 42.929-9.975 35.342-23.635 83.744-13.208 105.051.607 1.24.093 2.738-1.146 3.344-.354.173-.729.255-1.097.255z" fill="#2895b5"/><path d="m799.581 492.943c-.672 0-1.326-.226-1.862-.656-3.628-2.911-2.849-16.429-2.062-24.228 2.529-25.055 11.552-55.078 29.291-64.201 27.538-14.163 85.463 10.364 87.916 11.415 1.269.544 1.857 2.013 1.313 3.282s-2.014 1.857-3.282 1.313c-.579-.248-58.207-24.655-83.659-11.564-9.509 4.89-17.526 18.28-22.574 37.704-4.481 17.243-5.126 33.094-4.351 39.638 1.749-3.174 4.264-8.623 6.562-13.604 9.388-20.34 22.244-48.196 36.012-53.002 1.306-.455 2.729.233 3.185 1.536s-.233 2.729-1.536 3.184c-11.765 4.108-25.133 33.072-33.12 50.377-6.865 14.874-8.579 18.122-11.134 18.724-.232.055-.466.081-.698.081z" fill="#2895b5"/><path d="m918.558 636.479c-1.167 0-2.211-.822-2.449-2.01-8.623-43.116 4.253-79.385 34.444-97.019 19.584-11.44 42.376-11.581 55.426-.344 1.046.901 1.164 2.479.263 3.526-.901 1.046-2.479 1.164-3.526.263-11.458-9.866-31.872-9.507-49.642.873-28.262 16.507-40.248 50.796-32.062 91.721.271 1.354-.607 2.671-1.961 2.942-.166.033-.331.049-.493.049z" fill="#2895b5"/><ellipse cx="1108.722" cy="428.453" fill="#c7d0d1" rx="64.617" ry="56.22" transform="matrix(.40001314 -.9165094 .9165094 .40001314 272.538 1273.221)"/><ellipse cx="1108.722" cy="428.453" fill="url(#e)" rx="64.617" ry="56.22" transform="matrix(.40001314 -.9165094 .9165094 .40001314 272.538 1273.221)"/><path d="m951.201 601.338c-.199 0-.401-.02-.604-.062-1.624-.332-2.67-1.917-2.338-3.54 5.094-24.904 29.822-45.444 44.109-55.471l130.914-97.229c1.33-.988 3.21-.71 4.197.62.988 1.33.71 3.209-.62 4.197l-130.979 97.277c-13.623 9.562-37.065 28.94-41.743 51.81-.291 1.42-1.541 2.399-2.936 2.399z" fill="#c7d0d1"/><path d="m1028.752 561.954c-21.255-12.447-56.125 15.153-73.957 40.909-17.833 25.756-4.876 46.279 8.489 57.855 22.545 19.529 51.956 21.765 45.829-2.748-3.061-12.246-13.923-16.721-20.332-20.377s54.725-19.256 54.725-19.256 2.922-46.033-14.754-56.383z" fill="#f8b098"/><path d="m473.528 244.09c-22.979-27.574-72.875-38.921-128.809-33.327-61.277 6.128-217.712 88.957-250.329 202.62-25.277 88.085 53.617 191.489 53.617 191.489s23.745 75.064 55.915 101.106c32.17 26.043 114.894 17.617 114.894 17.617l24.51 22.213c37.197 21.807 108.766-53.106 88.851-90.383l-16.851-14.553s6.128-13.787 3.83-32.936-55.799-94.376-93.447-114.128c8.146-11.585 5.619-22.244-5.362-32.17 0 0 17.617 4.596 25.277-22.213s56.617-63.489 56.617-63.489 94.752-103.688 71.287-131.846z" fill="#5ab5d0"/><path d="m473.528 244.09c-22.979-27.574-72.875-38.921-128.809-33.327-61.277 6.128-217.712 88.957-250.329 202.62-25.277 88.085 53.617 191.489 53.617 191.489s23.745 75.064 55.915 101.106c32.17 26.043 114.894 17.617 114.894 17.617l24.51 22.213c37.197 21.807 108.766-53.106 88.851-90.383l-16.851-14.553s6.128-13.787 3.83-32.936-55.799-94.376-93.447-114.128c8.146-11.585 5.619-22.244-5.362-32.17 0 0 17.617 4.596 25.277-22.213s52.074-68.186 52.074-68.186 99.295-98.99 75.83-127.149z" fill="url(#f)"/><path d="m432.177 657.926c-.579 0-1.161-.2-1.633-.608l-16.851-14.553c-.833-.72-1.098-1.901-.65-2.907.057-.129 5.813-13.453 3.632-31.623-1.08-9-14.941-32.385-32.959-55.603-21.27-27.407-42.835-48.041-59.167-56.609-.637-.334-1.099-.927-1.268-1.626s-.029-1.438.385-2.026c7.146-10.163 5.56-19.339-4.993-28.878-.854-.772-1.071-2.029-.523-3.042.547-1.014 1.718-1.522 2.831-1.231.611.149 15.395 3.484 22.242-20.48.187-.655.633-1.205 1.236-1.524 19.417-10.259 39.382-20.248 39.582-20.348 1.235-.617 2.737-.117 3.354 1.118.618 1.235.117 2.737-1.118 3.354-.196.098-19.483 9.748-38.55 19.805-5.296 17.432-14.953 22.015-21.425 23.007 7.871 9.227 8.871 18.873 2.972 28.764 16.604 9.551 37.712 30 58.394 56.651 18.809 24.237 32.78 48.117 33.975 58.073 1.904 15.869-1.741 28.1-3.339 32.499l15.512 13.396c1.045.902 1.16 2.481.258 3.526-.495.572-1.192.866-1.893.866z" fill="#2895b5"/><rect fill="#17191f" height="42.383" rx="21.191" transform="matrix(.99374455 -.11167706 .11167706 .99374455 -61.898 120.733)" width="167.763" x="962.821" y="591.671"/><path d="m506.643 225.604c-72.712-23.829-87.468 55.189-97.544 190.757-.357 4.8 3.712 8.758 8.499 8.262 21.981-2.278 77.397-7.046 98.068.249 26.043 9.191 30.298 36.766 30.298 36.766s.341-38.298-14.979-64.34c-64.256-91.939-71.832-153.311-24.343-171.694z" fill="#bce8ff"/><path d="m666.473 318.285c-2.345 11.974-8.881 28.161-18.638 44.936-25.607 44.023-58.264 72.167-73.529 96.885 0 0 44-32.936 59.319-33.702 18.061-.903 35.058 7.51 45.968 14.569 5.24 3.39 12.109-.528 11.897-6.765-2.183-64.364-13.919-157.089-28.376-196.23 0 0 10.636 43.157 3.359 80.306z" fill="#bce8ff"/><path d="m1091.671 582.477c5.042 11.563 15.076 25.17 14.891 34.127-.503 24.284 27.48 30.146 29.433.01.557-8.593-2.92-25.158-6.328-34.464-8.787-24-23.953-31.211-36.015-26.672-9.463 3.561-6.147 17.445-1.98 27z" fill="#f8b098"/><path d="m1067.052 576.696c6.122 11.724 12.498 34.17 11.453 43.505-2.833 25.309 25.829 34.089 30.732 2.807 1.398-8.919 1.005-33.254-2.48-43.044-8.856-24.879-24.723-31.92-34.432-27.567-8.93 4.004-10.909 13.504-5.272 24.299z" fill="#f8b098"/><path d="m836.305 737.231-3.179-18.521c-4.717-27.483 13.892-53.535 41.42-57.984l112.398-15.409c10.301-2.482 13.437-17.272 12.128-28.404-1.532-13.021-10.904-22.149-23.106-22.149l-134.553 8.681s-40.34-55.149-89.872-42.894-54.128 45.957-88.34 61.787c-34.213 15.83-138.638 38.043-138.638 38.043-13.004 2.98-16.54 18.412-13.249 31.667 3.547 14.29 12.868 21.059 22.696 19.141l87.463-14.912c38.261-6.523 74.923 18.079 83.387 55.958l5.32 23.805 126.128-38.809z" fill="#e02641"/><path d="m1106.747 634.604c-.326 0-.657-.064-.975-.199-1.271-.539-1.865-2.007-1.326-3.278 1.04-2.45 1.82-5.312 2.321-8.506 1.439-9.186.828-32.847-2.366-41.819-4.25-11.938-10.647-20.744-18.015-24.796-1.209-.666-1.651-2.186-.985-3.395.665-1.21 2.185-1.651 3.396-.986 8.44 4.643 15.655 14.409 20.315 27.501 3.757 10.556 3.937 35.707 2.594 44.27-.564 3.599-1.458 6.857-2.657 9.685-.404.953-1.33 1.524-2.303 1.524z" fill="#ee8873"/><path d="m1038.854 587.43c6.079 11.746 12.361 28.405 11.07 37.71-3.499 25.225 24.921 34.758 30.647 3.617 1.633-8.879.04-26.846-2.112-37.012-7.111-33.596-22.471-39.015-31.17-37.432-8.699 1.582-19.584 11.575-8.435 33.118z" fill="#f8b098"/><path d="m1078.409 638.957c-.309 0-.623-.058-.928-.179-1.282-.513-1.905-1.968-1.393-3.25.854-2.134 1.535-4.564 2.023-7.223 1.515-8.238.11-25.607-2.099-36.042-4.358-20.589-11.637-29.178-16.976-32.757-1.147-.769-1.453-2.322-.685-3.469.77-1.147 2.323-1.453 3.469-.684 8.885 5.957 15.305 18.027 19.083 35.875 2.044 9.655 3.919 28.226 2.125 37.982-.549 2.984-1.322 5.734-2.299 8.176-.391.977-1.33 1.572-2.322 1.572z" fill="#ee8873"/><path d="m496.488 1477.191c97.918-17.456 163.659-110.322 147.582-208.476l-56.539-345.187c-13.165-80.376 41.777-156.052 122.279-168.425l128.508-19.751c60.363-9.277 116.911 31.868 126.655 92.158l26.823 166.06-84.255 441.957-193.584 53.705c-23.118 6.414-46.598 11.445-70.314 15.069l-200.361 30.613c-62.687 9.578-104.08-29.684-104.08-29.684" fill="#e02641"/><path d="m339.193 1509.731c-2.139 0-4.036-1.531-4.425-3.711-.436-2.447 1.194-4.784 3.641-5.22l157.29-28.04c94.954-16.927 159.521-108.135 143.931-203.318l-56.539-345.187c-6.563-40.068 2.959-80.229 26.813-113.085s59.092-54.348 99.223-60.515l128.508-19.751c30.376-4.668 60.791 2.719 85.641 20.801 24.851 18.082 41.237 44.749 46.14 75.088l27.58 159.116c.424 2.449-1.217 4.778-3.666 5.202-2.45.426-4.778-1.217-5.203-3.665l-27.588-159.167c-9.323-57.678-63.843-97.348-121.537-88.479l-128.508 19.751c-37.738 5.8-70.875 26.01-93.307 56.907s-31.386 68.663-25.214 106.342l56.539 345.187c7.968 48.646-3.33 97.594-31.811 137.827s-70.893 67.155-119.422 75.806l-157.29 28.04c-.267.048-.533.071-.795.071z" fill="#c7d0d1"/><path d="m1202.907 1316.973c33.155 163.598-47.096 298.117-168.216 300.261-110.445 1.955-215.817-108.771-243.864-247.161-28.047-138.391 28.224-269.945 133.82-295.829 115.802-28.385 245.105 79.131 278.261 242.729z" fill="#17191f"/><path d="m1079.698 1337.992c19.92 98.29-25.202 181.54-96.863 185.716-67.668 3.943-134.374-64.839-152.329-153.433-17.955-88.595 18.172-170.698 83.935-184.041 69.643-14.13 145.337 53.469 165.257 151.759z" fill="#c7d0d1"/><path d="m1079.698 1337.992c19.92 98.29-25.202 181.54-96.863 185.716-67.668 3.943-134.374-64.839-152.329-153.433-17.955-88.595 18.172-170.698 83.935-184.041 69.643-14.13 145.337 53.469 165.257 151.759z" fill="url(#g)"/><path d="m960.3 1349.848c4.225 20.85-4.815 39.168-20.015 40.894-15.009 1.705-30.386-13.448-34.516-33.824-4.13-20.377 4.476-38.638 19.39-40.813 15.104-2.202 30.916 12.893 35.142 33.743z" fill="#6e7477"/><path d="m1103.241 1076.678c10.34 18.383 15.191 32.553 19.787 59.362 3.845 22.427-24.288 20.748-29.745 16.085-21.064-18-49.742-36.849-76.596-42.894-39.447-10.468-109.915-17.617-167.745 32.17-61.043 52.554-71.362 152.426-67.787 194.17-10.723 3.702-21.83 5.745-21.83 5.745-22.596-75.064-50.17-265.021 59.783-337.964 70.431-25.48 129.142-27.438 129.142-27.438 69.488-2.858 131.204 58.477 154.99 100.764z" fill="#e02641"/><path d="m1103.241 1076.678c10.34 18.383 15.191 32.553 19.787 59.362 3.845 22.427-24.288 20.748-29.745 16.085-21.064-18-49.742-36.849-76.596-42.894-39.447-10.468-109.915-17.617-167.745 32.17-61.043 52.554-71.362 152.426-67.787 194.17-10.723 3.702-21.83 5.745-21.83 5.745-22.596-75.064-50.17-265.021 59.783-337.964 70.431-25.48 129.142-27.438 129.142-27.438 69.488-2.858 131.204 58.477 154.99 100.764z" fill="url(#h)"/><path d="m759.324 1343.816c-1.113 0-2.128-.748-2.419-1.876-.345-1.337.459-2.7 1.796-3.045.119-.031 12.049-3.107 25.699-6.393 1.34-.321 2.692.503 3.016 1.845s-.503 2.693-1.846 3.016c-13.607 3.276-25.501 6.343-25.62 6.373-.209.054-.419.08-.626.08z" fill="#b51239"/><path d="m759.325 1343.817c-1.074 0-2.067-.698-2.393-1.78-4.64-15.416-19.844-71.012-20.657-139.184-.787-66.034 12.089-119.297 38.271-158.312 17.151-25.558 43.249-44.457 73.483-53.216 56.187-16.277 99.705-17.895 100.138-17.91 1.353-.049 2.536 1.035 2.582 2.415s-1.035 2.536-2.415 2.582c-.427.014-43.366 1.623-98.914 17.715-29.108 8.433-54.225 26.616-70.723 51.2-57.477 85.647-36.238 229.284-16.977 293.268.398 1.322-.351 2.717-1.673 3.115-.24.073-.483.107-.722.107z" fill="#b51239"/><path d="m896.263 985.295c-3.342.314-5.986-2.799-5.132-6.045 9.539-36.231 50.057-35.636 74.67-21.431 18.041 10.412 48.421 37.722 61.015 59.701 1.549 2.704-1.808 5.551-4.222 3.581-57.305-46.746-107.827-37.545-126.331-35.805z" fill="#c7d0d1"/><path d="m380.56 675.316c-32.17 28.596-50.043 58.936-27.574 79.362 24.522 22.293 65.362-4.596 74.043-15.83s-14.298-92.128-46.468-63.532z" fill="#f8b098"/><path d="m404.757 753.701s15.411 3.376 43.694-5.479c10.501-3.288 41.445-20.008 65.641-25.289 26.64-5.814 25.791-36.05-7.983-33.108-9.63.839-31.821 5.389-42.383 8.886-37.985 12.578-74.944 8.244-74.944 8.244z" fill="#f8b098"/><rect fill="#17191f" height="42.383" rx="21.191" transform="matrix(.98222178 -.18772419 .18772419 .98222178 -123.554 97.136)" width="180.622" x="360.755" y="679.695"/><path d="m500.856 668.625c-.463 0-.933-.129-1.351-.399-1.161-.748-1.496-2.295-.748-3.456 9.28-14.409 6.669-22.712 4.145-30.743-1.235-3.929-2.513-7.991-2.241-12.48.796-13.135 13.242-48.78 26.572-85.343.473-1.298 1.909-1.965 3.205-1.492 1.297.473 1.965 1.908 1.492 3.205-12.568 34.473-25.519 71.403-26.278 83.933-.216 3.567.87 7.021 2.019 10.678 2.602 8.274 5.839 18.57-4.711 34.95-.478.742-1.282 1.147-2.104 1.147z" fill="#2895b5"/><circle cx="620.112" cy="135.742" fill="#f8b098" r="88.066"/><path d="m658.873 340.654c-22.579 57.521-61.39 43.801-95.81 33.882-38.224-11.015-81.361-44.545-74.818-77.57 18.848-45.173 33.399-112.44 46.976-184.721 46.276-75.204 107.143-26.842 170.628 43.689-7.884 73.619-26.273 132.479-46.976 184.721z" fill="#f8b098"/><path d="m518.703 222.718c-.206 0-.414-.026-.622-.079-3.963-1.015-7.814-2.443-11.447-4.245-1.237-.614-1.742-2.114-1.128-3.351.613-1.237 2.112-1.742 3.351-1.128 3.319 1.647 6.84 2.953 10.465 3.881 1.337.343 2.144 1.704 1.802 3.042-.289 1.13-1.306 1.88-2.42 1.88z" fill="#a13727"/><path d="m561.277 182.434c-.896 7.129 7.969 14.343 19.659 16.113 11.54 1.747 21.551-2.473 22.495-9.426.948-6.976-7.566-14.188-19.154-16.111-11.74-1.948-22.102 2.271-23.001 9.424z" fill="#fff3e6"/><g clip-path="url(#i)"><path d="m595.586 186.058c-.951 7.508-5.468 13.037-10.114 12.37-4.67-.671-7.722-7.344-6.792-14.928.933-7.611 5.513-13.194 10.205-12.447 4.667.743 7.656 7.47 6.701 15.006z" fill="#609102"/></g><path d="m643.887 195.917c-.988 6.783 6.954 13.587 17.614 15.198 10.529 1.592 19.8-2.486 20.826-9.109s-6.605-13.449-17.172-15.2c-10.699-1.773-20.277 2.306-21.268 9.11z" fill="#fff3e6"/><g clip-path="url(#j)"><path d="m675.209 199.142c-1.045 7.15-5.311 12.438-9.551 11.832-4.261-.609-6.899-6.939-5.871-14.157 1.032-7.243 5.354-12.581 9.632-11.903 4.257.675 6.839 7.053 5.79 14.228z" fill="#609102"/></g><path d="m579.304 220.536c-1.03 7.856-7.912 13.412-15.43 12.427-7.581-.993-12.971-8.253-11.976-16.237.998-8.014 8.032-13.617 15.65-12.496 7.554 1.111 12.791 8.42 11.756 16.306z" fill="#ea7762"/><path d="m657.508 231.407c-1.125 7.496 3.465 14.273 10.201 15.155 6.683.875 12.993-4.387 14.145-11.771 1.156-7.41-3.304-14.23-10.014-15.217-6.763-.995-13.203 4.311-14.332 11.833z" fill="#ea7762"/><path d="m622.355 241.122c-.582 0-1.167-.029-1.755-.089-4.698-.479-8.961-2.82-12.005-6.59-3.263-4.042-4.793-9.423-4.2-14.763.278-2.495 2.516-4.294 5.02-4.015 2.495.277 4.292 2.525 4.015 5.02-.328 2.946.488 5.88 2.238 8.047 1.509 1.869 3.588 3.026 5.854 3.257 5.034.513 9.69-3.659 10.357-9.304.295-2.493 2.557-4.277 5.048-3.98 2.493.295 4.275 2.554 3.98 5.047-1.173 9.921-9.307 17.37-18.553 17.37z" fill="#ee8873"/><path d="m676.918 181.226c-8.016-1.622-17.374-.347-24.485 4.167-8.131 4.612-13.514-8.809-4.915-12.462 10.626-3.986 21.523-3.354 31.461.75 3.942 1.78 2.094 8.426-2.062 7.545z" fill="#944c35"/><path d="m575.349 154.006c5.738-.018 11.433 1.046 16.911 3.015 5.433 1.983 10.702 4.834 15.449 9.082 2.894 2.447 3.393 7.003 1.091 10.055-2.496 3.396-7.433 3.416-10.019.05-2.67-3.414-6.344-6.448-10.425-8.819-4.136-2.399-8.731-4.175-13.471-5.038-4.693-.942-4.268-8.266.464-8.344z" fill="#944c35"/><path d="m734.497 135.574c0 74.876-49.274-23.62-124.149-23.62s-147 98.496-147 23.62 60.699-135.574 135.574-135.574 135.574 60.699 135.574 135.574z" fill="#fdf8f0"/><path d="m463.348 135.574c-1.043 61.553 12.745 107 15.809 112.106s11.234 14.809 22.468 15.319c7.214.328 20.426-6.638 25.021-17.362 4.048-9.445 10.213-80.681 10.213-80.681 62.773-35.975 136.565-30.306 162.893 12.255-.381 33.407-9.554 71.273-18.362 99.279 0 0 12.179 7.628 26.022-5.321 15.83-14.809 26.043-84.255 27.085-135.596.888-43.738-269.795-79.94-271.149 0z" fill="#fdf8f0"/><path d="m734.497 135.575c0-74.876-60.699-135.575-135.575-135.575s-135.574 60.699-135.574 135.574c-1.043 61.553 12.745 107 15.808 112.106 3.064 5.106 11.234 14.809 22.468 15.319 7.214.328 20.426-6.638 25.021-17.362 4.048-9.446 10.213-80.681 10.213-80.681 62.773-35.975 136.565-30.306 162.893 12.255-.381 33.407-9.554 71.273-18.362 99.279 0 0 12.179 7.628 26.022-5.321 14.996-14.028 24.949-77.086 26.843-127.338.16-2.482.242-5.225.242-8.258z" fill="url(#k)"/><g clip-path="url(#l)"><path d="m470.156 239.868c3.315 5.525 6.659 55.661 73.042 31.661-3.574-20.426-2.974-32.257-1.66-50.298.577-7.912-3.635-38.229-4.68-56.273.723-6.152 1.744-14.45 1.744-14.45 67.914-38.921 141.729-25.925 170.213 20.122-.325 28.497-5.203 56.697-13.277 84.689-2.166 7.51-6.297 21.891-14.68 20.958l-223.32 24.486 12.617-60.895z" fill="#c7d0d1"/></g><path d="m734.497 135.574c0 74.876-49.274-23.62-124.149-23.62s-147 98.496-147 23.62 60.699-135.574 135.574-135.574 135.574 60.699 135.574 135.574z" fill="url(#m)"/><circle cx="809.081" cy="619.369" fill="#c7d0d1" r="81.223"/><circle cx="825.964" cy="612.124" fill="#fdf8f0" r="67.787"/><circle cx="825.964" cy="612.124" fill="url(#n)" r="67.787"/><path d="m591.88 360.086c-.305 0-.615-.047-.921-.146-22.779-7.348-42.273-20.723-57.94-39.752-13.557-16.467-23.985-36.76-30.993-60.315-.473-1.588.432-3.258 2.02-3.731 1.587-.472 3.258.432 3.731 2.02 10.305 34.638 33.422 79.421 85.024 96.067 1.577.509 2.443 2.199 1.934 3.776-.41 1.271-1.587 2.08-2.854 2.08z" fill="#17191f"/><path d="m629.879 361.018c-1.657 0-3-1.343-3-3s1.343-3 3-3c8.811 0 21.277-9.165 33.347-24.516 12.615-16.045 23.252-36.68 29.183-56.613.473-1.588 2.142-2.492 3.731-2.02 1.588.473 2.493 2.143 2.02 3.731-6.138 20.631-17.152 41.993-30.217 58.61-13.592 17.287-27.11 26.807-38.063 26.807z" fill="#17191f"/><path d="m620.212 367.723-20.694-.135c-6.385-.042-9.013-6.385-5.072-12.276 2.329-3.481 6.365-5.784 10.158-5.784h20.9c6.577 0 9.204 6.479 5.064 12.452-2.419 3.491-6.534 5.768-10.357 5.743z" fill="#17191f"/><path d="m473.928 667.587c7.969 10.344 14.103 25.526 14.966 34.759 2.34 25.032 31.806 27.769 30.269-3.452-.438-8.902-3.057-26.348-6.2-36.113-8.152-25.33-26.552-37.004-41.169-30.674-6.517 2.822-20.492 16.493-18.851 24.444 1.081 5.235 14.883 3.116 20.985 11.037z" fill="#f8b098"/><path d="m505.352 724.215c-8.384 0-17.611-7.355-18.946-21.637-.769-8.223-6.387-22.989-14.458-33.466-2.714-3.523-7.55-4.75-11.817-5.833-4.532-1.15-8.813-2.237-9.636-6.224-.279-1.352.591-2.675 1.943-2.954 1.353-.278 2.675.591 2.954 1.943.19.921 3.668 1.804 5.969 2.388 4.802 1.219 10.779 2.736 14.548 7.628 7.854 10.195 14.507 25.694 15.475 36.052 1.093 11.692 8.347 17.529 14.619 17.079 5.359-.382 11.368-5.895 10.665-20.176-.068-1.379.995-2.552 2.374-2.62 1.381-.065 2.552.995 2.62 2.374.88 17.886-7.693 24.867-15.303 25.409-.333.024-.669.036-1.006.036z" fill="#ee8873"/><path d="m447.876 674.912c8.578 10.067 13.594 26.005 14.44 35.36 2.296 25.363 32.135 28.223 30.671-3.407-.417-9.018.041-24.375-5.557-36.706-11.43-25.177-32.317-32.095-42.827-27.414-5.545 2.47-18.086 13.039-19.234 24.146-.459 4.433 17.576 2.234 22.507 8.022z" fill="#f8b098"/><path d="m478.964 732.441c-8.49 0-17.827-7.468-19.137-21.943-.869-9.603-6.02-24.77-13.854-33.964-1.928-2.262-7.616-3.077-12.187-3.731-5.849-.838-11.374-1.629-10.904-6.169.142-1.373 1.37-2.372 2.744-2.229 1.151.119 2.038 1.001 2.212 2.092 1.118.564 4.412 1.036 6.656 1.357 5.686.814 12.131 1.737 15.284 5.438 8.595 10.087 14.065 26.126 15.027 36.756 1.074 11.867 8.417 17.811 14.792 17.373 5.444-.372 11.563-5.948 10.892-20.439-.062-1.34-.105-2.818-.151-4.405-.261-9-.619-21.325-5.185-31.383-6.344-13.974-16.862-23.933-28.136-26.642-1.343-.323-2.169-1.672-1.847-3.015.322-1.342 1.67-2.17 3.015-1.847 6.127 1.472 21.465 7.288 31.521 29.437 4.982 10.975 5.357 23.881 5.63 33.305.045 1.556.087 3.005.148 4.319.837 18.097-7.851 25.133-15.546 25.659-.323.022-.649.033-.975.033z" fill="#ee8873"/><path d="m418.707 677.479c8.614 10.036 15.031 31.589 16.124 40.919 2.964 25.294 32.869 27.365 30.571-4.215-.655-9.004-2.245-31.693-8.279-42.499-10.428-18.675-26.902-25.577-38.391-20.598-7.149 3.098-19.022 16.571-20.554 27.295-.331 2.314 18.913-2.785 20.53-.901z" fill="#f8b098"/><path d="m343.536 1035.391c-.421 0-.848-.107-1.24-.331-1.198-.686-1.613-2.214-.927-3.412l30.128-52.596c.686-1.198 2.212-1.614 3.412-.927 1.198.686 1.613 2.214.927 3.412l-30.128 52.596c-.462.806-1.305 1.258-2.172 1.258z" fill="#ffe5c9"/><path d="m358.86 1139.051c-.215 0-.433-.028-.65-.086-1.333-.359-2.124-1.73-1.765-3.063l29.106-108.255c.358-1.333 1.73-2.123 3.063-1.765 1.333.359 2.124 1.73 1.765 3.063l-29.106 108.255c-.3 1.116-1.31 1.852-2.413 1.852z" fill="#ffe5c9"/><path d="m451.674 740.124c-8.388 0-17.66-7.218-19.326-21.436-1.002-8.549-7.062-29.281-15.161-39.132-1.577-.131-6.089.551-8.872.971-7.563 1.141-10.257 1.458-11.798-.071-.647-.642-.944-1.528-.815-2.43.195-1.367 1.458-2.319 2.829-2.121.501.072.946.287 1.299.599 1.565.018 5.211-.539 7.74-.92 8.567-1.293 11.468-1.557 13.034.267 9.067 10.563 15.601 32.785 16.71 42.256 1.387 11.834 8.893 17.579 15.245 16.976 5.432-.516 11.402-6.251 10.349-20.719l-.022-.309c-.616-8.465-2.25-30.953-7.946-41.153-6.029-10.798-14.621-18.197-23.573-20.301-1.344-.316-2.177-1.662-1.861-3.006s1.664-2.177 3.006-1.862c10.315 2.425 20.081 10.71 26.793 22.731 6.237 11.169 7.87 33.635 8.568 43.228l.022.308c1.315 18.069-7.185 25.331-14.863 26.06-.449.043-.902.064-1.357.064z" fill="#ee8873"/><path d="m364.773 1398.607c-.283 0-.571-.049-.852-.151-1.298-.47-1.969-1.904-1.498-3.202 10.752-29.65 96.942-108.555 124.625-114.092 24.811-4.962 44.491 1.919 67.279 9.885 2.546.89 5.145 1.799 7.81 2.712 1.306.448 2.001 1.87 1.554 3.176s-1.866 2.002-3.176 1.554c-2.674-.917-5.282-1.829-7.838-2.722-23.007-8.043-41.181-14.396-64.648-9.702-26.019 5.204-110.766 82.933-120.906 110.894-.369 1.017-1.328 1.648-2.35 1.648z" fill="#ffe5c9"/><g fill="#2895b5"><path d="m320.345 464.139c-.471 0-.947-.133-1.371-.411-28.992-19.053-79.274-46.7-90.785-39.777-2.234 1.344-3.311 2.73-3.198 4.119.429 5.315 14.285 13.172 23.987 17.052 1.282.513 1.905 1.968 1.393 3.25-.513 1.282-1.967 1.905-3.25 1.393-4.382-1.753-26.284-11.017-27.113-21.292-.191-2.365.626-5.812 5.605-8.806 8.024-4.828 26.218.398 55.614 15.98 21.078 11.173 40.303 23.777 40.495 23.903 1.154.758 1.475 2.308.716 3.462-.48.731-1.278 1.127-2.092 1.127z"/><path d="m182.473 605.841c-.421 0-.848-.107-1.24-.331-1.198-.686-1.613-2.214-.927-3.412 1.986-3.467 49.057-85.124 86.072-103.632 37.493-18.746 59.589-7.355 60.512-6.861 1.217.652 1.675 2.167 1.023 3.384-.65 1.214-2.162 1.672-3.375 1.028-.205-.108-20.931-10.575-55.923 6.921-35.668 17.834-83.491 100.809-83.97 101.645-.462.806-1.305 1.258-2.172 1.258z"/><path d="m298.335 701.34c-2.874 0-4.465-1.37-5.293-2.52-2.799-3.883-1.773-11.968 3.539-27.904 6.174-18.523 53.091-100.568 55.085-104.052.685-1.198 2.211-1.614 3.412-.928 1.198.686 1.613 2.214.927 3.412-.486.849-48.663 85.094-54.681 103.149-5.512 16.538-5.34 21.853-4.226 23.4.106.147.298.413 1.098.441 3.034-.951 16.499-13.643 27.337-23.86 16.682-15.725 33.932-31.986 42.517-35.827 30.216-13.518 48.17 1.684 48.92 2.338 1.041.908 1.148 2.487.24 3.527-.908 1.041-2.486 1.148-3.527.24-.651-.559-16.421-13.696-43.591-1.541-7.813 3.495-26.286 20.909-41.129 34.901-19.823 18.686-27.076 25.224-30.627 25.224z"/><path d="m636.772 516.2c-.315 0-.635-.06-.944-.186-1.278-.522-1.891-1.982-1.369-3.26 11.012-26.96 23.31-51.994 23.433-52.244.61-1.238 2.109-1.749 3.347-1.139 1.239.61 1.749 2.108 1.139 3.347-.123.248-12.347 25.133-23.29 51.926-.396.969-1.33 1.555-2.315 1.555z"/></g><path d="m391.12 691.11c7.526 10.124 17.008 28.705 18.853 37.472 5.002 23.769 33.586 23.151 28.673-6.647-1.401-8.496-6.327-30.79-10.588-39.738-9.71-20.39-27.327-24.475-38.05-17.326-5.009 3.339-37.022 29.593-44.937 56.146.511 18.255 7.915-38.426 46.049-29.908z" fill="#f8b098"/><path d="m426.563 747.937c-7.717 0-16.362-6.129-19.037-18.84-.765-3.634-3.091-9.545-6.383-16.217-.611-1.238-.102-2.737 1.136-3.348s2.737-.102 3.348 1.136c3.52 7.135 5.932 13.314 6.791 17.4 2.326 11.05 9.887 15.83 15.813 14.717 5.064-.95 10.184-6.873 7.946-20.442-1.521-9.222-6.425-30.767-10.379-39.07-4.622-9.707-11.5-16.248-19.368-18.419-5.422-1.496-10.764-.751-15.038 2.098-1.149.766-2.701.455-3.467-.693s-.456-2.701.693-3.467c5.419-3.614 12.397-4.619 19.141-2.758 9.288 2.562 17.297 10.052 22.553 21.089 4.505 9.461 9.481 32.424 10.798 40.406 2.824 17.131-4.677 24.804-11.958 26.17-.845.158-1.713.238-2.591.238z" fill="#ee8873"/><path d="m1010.608 598.364c6.329 11.421 15.121 27.35 14.592 36.608-1.436 25.101 27.288 32.22 30.445 1.12.9-8.867-2.076-27.585-4.721-36.634-7.149-24.458-16.63-40.148-32.557-39.85-13.938.262-19.965 16.73-7.758 38.756z" fill="#f8b098"/><path d="m1040.289 659.218c-.369 0-.733-.015-1.094-.043-8.631-.685-17.345-9.45-16.493-24.346.079-1.379 1.275-2.43 2.639-2.353 1.379.079 2.432 1.26 2.354 2.639-.671 11.724 5.628 18.579 11.896 19.076 5.341.425 12.122-4.126 13.566-18.351.828-8.153-1.858-26.186-4.634-35.681-7.764-26.56-17.013-38.289-30.11-38.052-1.396.031-2.521-1.072-2.546-2.453-.026-1.38 1.072-2.521 2.453-2.546 20.114-.376 29.277 22.059 35.003 41.648 2.61 8.929 5.781 28.011 4.81 37.588-1.723 16.971-10.445 22.873-17.842 22.874z" fill="#ee8873"/></svg>