<?xml version="1.0" encoding="utf-8"?>
<!-- Generator: Adobe Illustrator 27.5.0, SVG Export Plug-In . SVG Version: 6.00 Build 0)  -->
<svg version="1.1" xmlns="http://www.w3.org/2000/svg" xmlns:xlink="http://www.w3.org/1999/xlink" x="0px" y="0px"
	 viewBox="0 0 750 500" style="enable-background:new 0 0 750 500;" xml:space="preserve">
<g id="Background_complete">
	<g>
		<g>
			<path style="fill:#E6E6E6;" d="M348.691,64.746c-2.14-1.616-5.261-1.8-7.575-0.444c-3.071-6.207-11.63-8.946-17.734-5.676
				c-1.592-6.688-8.182-11.829-15.056-11.746c-6.875,0.083-13.338,5.38-14.769,12.105c-0.228,1.069-0.378,2.239-1.142,3.02
				c-1.242,1.268-3.315,0.843-5.084,0.704c-5.567-0.434-11.169,3.474-12.684,8.85l76.669-0.279
				C351.986,68.684,350.831,66.363,348.691,64.746z"/>
		</g>
	</g>
	<g>
		<g>
			<path style="fill:#E6E6E6;" d="M424.218,105.647c-1.357-1.025-3.336-1.141-4.803-0.282c-1.948-3.935-7.375-5.672-11.245-3.599
				c-1.01-4.241-5.188-7.5-9.547-7.448c-4.359,0.052-8.458,3.412-9.365,7.676c-0.144,0.677-0.24,1.42-0.724,1.915
				c-0.787,0.804-2.102,0.534-3.224,0.447c-3.53-0.275-7.082,2.203-8.042,5.611l48.615-0.177
				C426.308,108.144,425.575,106.672,424.218,105.647z"/>
		</g>
	</g>
	<g>
		<g>
			<path style="fill:#F5F5F5;" d="M545.298,53.276c-1.357-1.025-3.336-1.141-4.803-0.282c-1.948-3.936-7.375-5.672-11.245-3.599
				c-1.01-4.241-5.188-7.5-9.547-7.448c-4.359,0.052-8.458,3.412-9.365,7.676c-0.144,0.677-0.24,1.42-0.724,1.915
				c-0.787,0.804-2.102,0.534-3.224,0.447c-3.53-0.275-7.082,2.203-8.042,5.611l48.615-0.177
				C547.387,55.772,546.654,54.301,545.298,53.276z"/>
		</g>
	</g>
	<g>
		<g>
			<path style="fill:#E6E6E6;" d="M169.68,95.347c-2.14-1.617-5.261-1.8-7.575-0.444c-3.071-6.207-11.63-8.946-17.734-5.676
				c-1.592-6.688-8.182-11.829-15.056-11.746c-6.875,0.083-13.338,5.38-14.769,12.105c-0.227,1.069-0.378,2.239-1.142,3.02
				c-1.242,1.268-3.315,0.843-5.084,0.704c-5.567-0.434-11.169,3.474-12.684,8.85l76.67-0.279
				C172.975,99.285,171.82,96.964,169.68,95.347z"/>
		</g>
	</g>
	<g>
		<g>
			<path style="fill:#F5F5F5;" d="M233.033,128.665c-1.452-1.097-3.57-1.221-5.141-0.301c-2.084-4.212-7.892-6.07-12.035-3.851
				c-1.081-4.538-5.552-8.027-10.217-7.971c-4.665,0.056-9.051,3.651-10.022,8.214c-0.154,0.725-0.257,1.52-0.775,2.049
				c-0.843,0.861-2.249,0.572-3.45,0.478c-3.778-0.295-7.579,2.358-8.607,6.005l52.028-0.189
				C235.269,131.338,234.485,129.762,233.033,128.665z"/>
		</g>
	</g>
	<g>
		<g>
			<path style="fill:#F5F5F5;" d="M181.743,210.433c-1.452-1.097-3.57-1.221-5.14-0.301c-2.084-4.212-7.892-6.07-12.035-3.852
				c-1.081-4.538-5.552-8.027-10.217-7.971c-4.665,0.056-9.051,3.651-10.023,8.214c-0.154,0.725-0.257,1.52-0.775,2.049
				c-0.843,0.861-2.249,0.572-3.45,0.478c-3.778-0.295-7.579,2.358-8.607,6.005l52.028-0.189
				C183.979,213.105,183.195,211.53,181.743,210.433z"/>
		</g>
	</g>
	<g>
		<g>
			<path style="fill:#F5F5F5;" d="M704.504,108.944c-1.452-1.097-3.57-1.221-5.141-0.301c-2.084-4.212-7.892-6.071-12.034-3.852
				c-1.081-4.538-5.552-8.027-10.217-7.971c-4.665,0.056-9.051,3.651-10.022,8.214c-0.154,0.725-0.257,1.52-0.775,2.049
				c-0.843,0.861-2.249,0.572-3.45,0.478c-3.778-0.295-7.579,2.358-8.607,6.005l52.028-0.189
				C706.74,111.616,705.956,110.041,704.504,108.944z"/>
		</g>
	</g>
	<g id="freepik--background-complete--inject-481">
		<polygon style="fill:#EBEBEB;" points="667.089,212.536 666.246,166.353 640.359,166.353 640.359,176.885 621.3,176.885 
			621.3,61.52 584.652,61.52 584.652,106.927 573.657,106.927 573.657,84.253 545.062,84.253 545.062,194.833 504.741,194.833 
			504.741,155.764 479.46,155.764 479.46,71.056 448.258,71.056 448.258,127.528 418.933,127.528 418.933,249.184 396.212,249.184 
			396.212,189.943 372.75,189.943 372.75,151.824 347.828,151.824 347.828,122.557 320.021,137.225 320.021,215.526 
			290.696,215.526 290.696,199.374 251.522,199.374 251.522,312.862 707.49,313.082 707.49,212.536 		"/>
		<path style="fill:#E6E6E6;" d="M374.662,312.922V144.073h-31.156v169.01C353.366,312.839,374.662,312.922,374.662,312.922z"/>
		<path style="fill:#FAFAFA;" d="M346.287,313.082v-92.864h-64.119v92.659L346.287,313.082z"/>
		<path style="fill:#E0E0E0;" d="M424.193,312.946V176.619H387.87v136.309L424.193,312.946z"/>
		<rect x="390.628" y="181.96" style="fill:#FAFAFA;" width="4.403" height="9.084"/>
		<rect x="399.433" y="181.96" style="fill:#FAFAFA;" width="4.403" height="9.084"/>
		<rect x="408.239" y="181.96" style="fill:#FAFAFA;" width="4.403" height="9.084"/>
		<rect x="417.045" y="181.96" style="fill:#FAFAFA;" width="4.403" height="9.084"/>
		<rect x="390.628" y="197.196" style="fill:#FAFAFA;" width="4.403" height="9.084"/>
		<rect x="399.433" y="197.196" style="fill:#FAFAFA;" width="4.403" height="9.084"/>
		<rect x="408.239" y="197.196" style="fill:#FAFAFA;" width="4.403" height="9.084"/>
		<rect x="417.045" y="197.196" style="fill:#FAFAFA;" width="4.403" height="9.084"/>
		<rect x="390.628" y="212.421" style="fill:#FAFAFA;" width="4.403" height="9.084"/>
		<rect x="399.433" y="212.421" style="fill:#FAFAFA;" width="4.403" height="9.084"/>
		<rect x="408.239" y="212.421" style="fill:#FAFAFA;" width="4.403" height="9.084"/>
		<rect x="417.045" y="212.421" style="fill:#FAFAFA;" width="4.403" height="9.084"/>
		<rect x="390.628" y="227.645" style="fill:#FAFAFA;" width="4.403" height="9.084"/>
		<rect x="399.433" y="227.645" style="fill:#FAFAFA;" width="4.403" height="9.084"/>
		<rect x="408.239" y="227.645" style="fill:#FAFAFA;" width="4.403" height="9.084"/>
		<rect x="417.045" y="227.645" style="fill:#FAFAFA;" width="4.403" height="9.084"/>
		<rect x="390.628" y="242.87" style="fill:#FAFAFA;" width="4.403" height="9.084"/>
		<rect x="399.433" y="242.87" style="fill:#FAFAFA;" width="4.403" height="9.084"/>
		<rect x="408.239" y="242.87" style="fill:#FAFAFA;" width="4.403" height="9.084"/>
		<rect x="417.045" y="242.87" style="fill:#FAFAFA;" width="4.403" height="9.084"/>
		<rect x="390.628" y="258.094" style="fill:#FAFAFA;" width="4.403" height="9.084"/>
		<rect x="399.433" y="258.094" style="fill:#FAFAFA;" width="4.403" height="9.084"/>
		<rect x="408.239" y="258.094" style="fill:#FAFAFA;" width="4.403" height="9.084"/>
		<rect x="417.045" y="258.094" style="fill:#FAFAFA;" width="4.403" height="9.084"/>
		<rect x="390.628" y="273.318" style="fill:#FAFAFA;" width="4.403" height="9.084"/>
		<rect x="399.433" y="273.318" style="fill:#FAFAFA;" width="4.403" height="9.084"/>
		<rect x="408.239" y="273.318" style="fill:#FAFAFA;" width="4.403" height="9.084"/>
		<rect x="417.045" y="273.318" style="fill:#FAFAFA;" width="4.403" height="9.084"/>
		<rect x="390.628" y="288.554" style="fill:#FAFAFA;" width="4.403" height="9.084"/>
		<rect x="399.433" y="288.554" style="fill:#FAFAFA;" width="4.403" height="9.084"/>
		<rect x="408.239" y="288.554" style="fill:#FAFAFA;" width="4.403" height="9.084"/>
		<rect x="417.045" y="288.554" style="fill:#FAFAFA;" width="4.403" height="9.084"/>
		<path style="fill:#F5F5F5;" d="M550.415,313.007V157.2h-75.311v155.859C475.104,313.059,549.838,313.082,550.415,313.007z"/>
		<rect x="480.758" y="163.411" style="fill:#E6E6E6;" width="9.13" height="10.462"/>
		<rect x="499.029" y="163.411" style="fill:#E6E6E6;" width="9.13" height="10.462"/>
		<rect x="517.289" y="163.411" style="fill:#E6E6E6;" width="9.13" height="10.462"/>
		<rect x="535.561" y="163.411" style="fill:#E6E6E6;" width="9.13" height="10.462"/>
		<rect x="480.758" y="180.964" style="fill:#E6E6E6;" width="9.13" height="10.462"/>
		<rect x="499.029" y="180.964" style="fill:#E6E6E6;" width="9.13" height="10.462"/>
		<rect x="517.289" y="180.964" style="fill:#E6E6E6;" width="9.13" height="10.462"/>
		<rect x="535.561" y="180.964" style="fill:#E6E6E6;" width="9.13" height="10.462"/>
		<rect x="480.758" y="198.505" style="fill:#E6E6E6;" width="9.13" height="10.462"/>
		<rect x="499.029" y="198.505" style="fill:#E6E6E6;" width="9.13" height="10.462"/>
		<rect x="517.289" y="198.505" style="fill:#E6E6E6;" width="9.13" height="10.462"/>
		<rect x="535.561" y="198.505" style="fill:#E6E6E6;" width="9.13" height="10.462"/>
		<rect x="480.758" y="216.047" style="fill:#E6E6E6;" width="9.13" height="10.462"/>
		<rect x="499.029" y="216.047" style="fill:#E6E6E6;" width="9.13" height="10.462"/>
		<rect x="517.289" y="216.047" style="fill:#E6E6E6;" width="9.13" height="10.462"/>
		<rect x="535.561" y="216.047" style="fill:#E6E6E6;" width="9.13" height="10.462"/>
		<rect x="480.758" y="233.6" style="fill:#E6E6E6;" width="9.13" height="10.462"/>
		<rect x="499.029" y="233.6" style="fill:#E6E6E6;" width="9.13" height="10.462"/>
		<rect x="517.289" y="233.6" style="fill:#E6E6E6;" width="9.13" height="10.462"/>
		<rect x="535.561" y="233.6" style="fill:#E6E6E6;" width="9.13" height="10.462"/>
		<rect x="480.758" y="251.142" style="fill:#E6E6E6;" width="9.13" height="10.462"/>
		<rect x="499.029" y="251.142" style="fill:#E6E6E6;" width="9.13" height="10.462"/>
		<rect x="517.289" y="251.142" style="fill:#E6E6E6;" width="9.13" height="10.462"/>
		<rect x="535.561" y="251.142" style="fill:#E6E6E6;" width="9.13" height="10.462"/>
		<rect x="480.758" y="268.695" style="fill:#E6E6E6;" width="9.13" height="10.462"/>
		<rect x="499.029" y="268.695" style="fill:#E6E6E6;" width="9.13" height="10.462"/>
		<rect x="517.289" y="268.695" style="fill:#E6E6E6;" width="9.13" height="10.462"/>
		<rect x="535.561" y="268.695" style="fill:#E6E6E6;" width="9.13" height="10.462"/>
		<rect x="480.758" y="286.237" style="fill:#E6E6E6;" width="9.13" height="10.462"/>
		<rect x="499.029" y="286.237" style="fill:#E6E6E6;" width="9.13" height="10.462"/>
		<rect x="517.289" y="286.237" style="fill:#E6E6E6;" width="9.13" height="10.462"/>
		<rect x="535.561" y="286.237" style="fill:#E6E6E6;" width="9.13" height="10.462"/>
		<rect x="349.251" y="155.549" style="fill:#FAFAFA;" width="8.413" height="9.641"/>
		<rect x="349.251" y="171.714" style="fill:#FAFAFA;" width="8.413" height="9.641"/>
		<rect x="349.251" y="187.889" style="fill:#FAFAFA;" width="8.413" height="9.641"/>
		<rect x="349.251" y="204.054" style="fill:#FAFAFA;" width="8.413" height="9.641"/>
		<rect x="349.251" y="220.219" style="fill:#FAFAFA;" width="8.413" height="9.641"/>
		<rect x="349.251" y="236.394" style="fill:#FAFAFA;" width="8.413" height="9.641"/>
		<rect x="349.251" y="252.559" style="fill:#FAFAFA;" width="8.413" height="9.641"/>
		<rect x="349.251" y="268.735" style="fill:#FAFAFA;" width="8.413" height="9.641"/>
		<rect x="360.504" y="155.549" style="fill:#FAFAFA;" width="8.413" height="9.641"/>
		<rect x="360.504" y="171.714" style="fill:#FAFAFA;" width="8.413" height="9.641"/>
		<rect x="360.504" y="187.889" style="fill:#FAFAFA;" width="8.413" height="9.641"/>
		<rect x="360.504" y="204.054" style="fill:#FAFAFA;" width="8.413" height="9.641"/>
		<rect x="360.504" y="220.219" style="fill:#FAFAFA;" width="8.413" height="9.641"/>
		<rect x="360.504" y="236.394" style="fill:#FAFAFA;" width="8.413" height="9.641"/>
		<rect x="360.504" y="252.559" style="fill:#FAFAFA;" width="8.413" height="9.641"/>
		<rect x="360.504" y="268.735" style="fill:#FAFAFA;" width="8.413" height="9.641"/>
		<rect x="455.395" y="82.262" style="fill:#FAFAFA;" width="9.13" height="10.462"/>
		<rect x="455.395" y="99.803" style="fill:#FAFAFA;" width="9.13" height="10.462"/>
		<rect x="455.395" y="116.15" style="fill:#FAFAFA;" width="9.13" height="10.462"/>
		<rect x="455.395" y="133.692" style="fill:#FAFAFA;" width="9.13" height="10.462"/>
		<rect x="455.395" y="151.233" style="fill:#FAFAFA;" width="9.13" height="10.462"/>
		<rect x="455.395" y="168.786" style="fill:#FAFAFA;" width="9.13" height="10.462"/>
		<rect x="455.395" y="186.328" style="fill:#FAFAFA;" width="9.13" height="10.462"/>
		<rect x="455.395" y="203.882" style="fill:#FAFAFA;" width="9.13" height="10.462"/>
		<rect x="592.542" y="67.047" style="fill:#FAFAFA;" width="9.13" height="10.462"/>
		<rect x="592.542" y="84.589" style="fill:#FAFAFA;" width="9.13" height="10.462"/>
		<rect x="592.542" y="102.142" style="fill:#FAFAFA;" width="9.13" height="10.462"/>
		<rect x="592.542" y="119.684" style="fill:#FAFAFA;" width="9.13" height="10.462"/>
		<rect x="592.542" y="137.237" style="fill:#FAFAFA;" width="9.13" height="10.462"/>
		<rect x="592.542" y="154.779" style="fill:#FAFAFA;" width="9.13" height="10.462"/>
		<rect x="592.542" y="172.332" style="fill:#FAFAFA;" width="9.13" height="10.462"/>
		<rect x="592.542" y="189.874" style="fill:#FAFAFA;" width="9.13" height="10.462"/>
		<rect x="612.1" y="147.653" style="fill:#E6E6E6;" width="54.989" height="165.429"/>
		<rect x="620.234" y="155.81" style="fill:#FAFAFA;" width="16.117" height="10.462"/>
		<rect x="620.234" y="173.363" style="fill:#FAFAFA;" width="16.117" height="10.462"/>
		<rect x="620.234" y="190.905" style="fill:#FAFAFA;" width="16.117" height="10.462"/>
		<rect x="620.234" y="208.458" style="fill:#FAFAFA;" width="16.117" height="10.462"/>
		<rect x="620.234" y="226" style="fill:#FAFAFA;" width="16.117" height="10.462"/>
		<rect x="620.234" y="243.542" style="fill:#FAFAFA;" width="16.117" height="10.462"/>
		<rect x="620.234" y="261.095" style="fill:#FAFAFA;" width="16.117" height="10.462"/>
		<rect x="620.234" y="278.637" style="fill:#FAFAFA;" width="16.117" height="10.462"/>
		<rect x="641.796" y="155.81" style="fill:#FAFAFA;" width="16.117" height="10.462"/>
		<rect x="641.796" y="173.363" style="fill:#FAFAFA;" width="16.117" height="10.462"/>
		<rect x="641.796" y="190.905" style="fill:#FAFAFA;" width="16.117" height="10.462"/>
		<rect x="641.796" y="208.458" style="fill:#FAFAFA;" width="16.117" height="10.462"/>
		<rect x="641.796" y="226" style="fill:#FAFAFA;" width="16.117" height="10.462"/>
		<rect x="641.796" y="243.542" style="fill:#FAFAFA;" width="16.117" height="10.462"/>
		<rect x="641.796" y="261.095" style="fill:#FAFAFA;" width="16.117" height="10.462"/>
		<rect x="641.796" y="278.637" style="fill:#FAFAFA;" width="16.117" height="10.462"/>
		<path style="fill:#E0E0E0;" d="M582.115,313.022V198.505h-23.984V313.01L582.115,313.022z"/>
		<rect x="559.95" y="203.14" style="fill:#FAFAFA;" width="2.908" height="7.798"/>
		<rect x="565.766" y="203.14" style="fill:#FAFAFA;" width="2.908" height="7.798"/>
		<rect x="571.571" y="203.14" style="fill:#FAFAFA;" width="2.908" height="7.798"/>
		<rect x="577.388" y="203.14" style="fill:#FAFAFA;" width="2.908" height="7.798"/>
		<rect x="559.95" y="216.221" style="fill:#FAFAFA;" width="2.908" height="7.798"/>
		<rect x="565.766" y="216.221" style="fill:#FAFAFA;" width="2.908" height="7.798"/>
		<rect x="571.571" y="216.221" style="fill:#FAFAFA;" width="2.908" height="7.798"/>
		<rect x="577.388" y="216.221" style="fill:#FAFAFA;" width="2.908" height="7.798"/>
		<rect x="559.95" y="229.302" style="fill:#FAFAFA;" width="2.908" height="7.798"/>
		<rect x="565.766" y="229.302" style="fill:#FAFAFA;" width="2.908" height="7.798"/>
		<rect x="571.571" y="229.302" style="fill:#FAFAFA;" width="2.908" height="7.798"/>
		<rect x="577.388" y="229.302" style="fill:#FAFAFA;" width="2.908" height="7.798"/>
		<rect x="559.95" y="242.383" style="fill:#FAFAFA;" width="2.908" height="7.798"/>
		<rect x="565.766" y="242.383" style="fill:#FAFAFA;" width="2.908" height="7.798"/>
		<rect x="571.571" y="242.383" style="fill:#FAFAFA;" width="2.908" height="7.798"/>
		<rect x="577.388" y="242.383" style="fill:#FAFAFA;" width="2.908" height="7.798"/>
		<rect x="559.95" y="255.475" style="fill:#FAFAFA;" width="2.908" height="7.798"/>
		<rect x="565.766" y="255.475" style="fill:#FAFAFA;" width="2.908" height="7.798"/>
		<rect x="571.571" y="255.475" style="fill:#FAFAFA;" width="2.908" height="7.798"/>
		<rect x="577.388" y="255.475" style="fill:#FAFAFA;" width="2.908" height="7.798"/>
		<rect x="559.95" y="268.556" style="fill:#FAFAFA;" width="2.908" height="7.798"/>
		<rect x="565.766" y="268.556" style="fill:#FAFAFA;" width="2.908" height="7.798"/>
		<rect x="571.571" y="268.556" style="fill:#FAFAFA;" width="2.908" height="7.798"/>
		<rect x="577.388" y="268.556" style="fill:#FAFAFA;" width="2.908" height="7.798"/>
		<rect x="559.95" y="281.637" style="fill:#FAFAFA;" width="2.908" height="7.798"/>
		<rect x="565.766" y="281.637" style="fill:#FAFAFA;" width="2.908" height="7.798"/>
		<rect x="571.571" y="281.637" style="fill:#FAFAFA;" width="2.908" height="7.798"/>
		<rect x="577.388" y="281.637" style="fill:#FAFAFA;" width="2.908" height="7.798"/>
		<rect x="559.95" y="294.718" style="fill:#FAFAFA;" width="2.908" height="7.798"/>
		<rect x="565.766" y="294.718" style="fill:#FAFAFA;" width="2.908" height="7.798"/>
		<rect x="571.571" y="294.718" style="fill:#FAFAFA;" width="2.908" height="7.798"/>
		<rect x="577.388" y="294.718" style="fill:#FAFAFA;" width="2.908" height="7.798"/>
		<rect x="287.023" y="224.1" style="fill:#E6E6E6;" width="7.774" height="6.546"/>
		<rect x="302.572" y="224.1" style="fill:#E6E6E6;" width="7.774" height="6.546"/>
		<rect x="318.109" y="224.1" style="fill:#E6E6E6;" width="7.774" height="6.546"/>
		<rect x="333.658" y="224.1" style="fill:#E6E6E6;" width="7.774" height="6.546"/>
		<rect x="287.023" y="235.072" style="fill:#E6E6E6;" width="7.774" height="6.546"/>
		<rect x="302.572" y="235.072" style="fill:#E6E6E6;" width="7.774" height="6.546"/>
		<rect x="318.109" y="235.072" style="fill:#E6E6E6;" width="7.774" height="6.546"/>
		<rect x="333.658" y="235.072" style="fill:#E6E6E6;" width="7.774" height="6.546"/>
		<rect x="287.023" y="246.044" style="fill:#E6E6E6;" width="7.774" height="6.546"/>
		<rect x="302.572" y="246.044" style="fill:#E6E6E6;" width="7.774" height="6.546"/>
		<rect x="318.109" y="246.044" style="fill:#E6E6E6;" width="7.774" height="6.546"/>
		<rect x="333.658" y="246.044" style="fill:#E6E6E6;" width="7.774" height="6.546"/>
		<rect x="287.023" y="257.016" style="fill:#E6E6E6;" width="7.774" height="6.546"/>
		<rect x="302.572" y="257.016" style="fill:#E6E6E6;" width="7.774" height="6.546"/>
		<rect x="318.109" y="257.016" style="fill:#E6E6E6;" width="7.774" height="6.546"/>
		<rect x="333.658" y="257.016" style="fill:#E6E6E6;" width="7.774" height="6.546"/>
		<rect x="287.023" y="267.977" style="fill:#E6E6E6;" width="7.774" height="6.546"/>
		<rect x="302.572" y="267.977" style="fill:#E6E6E6;" width="7.774" height="6.546"/>
		<rect x="318.109" y="267.977" style="fill:#E6E6E6;" width="7.774" height="6.546"/>
		<rect x="333.658" y="267.977" style="fill:#E6E6E6;" width="7.774" height="6.546"/>
		<rect x="287.023" y="278.949" style="fill:#E6E6E6;" width="7.774" height="6.546"/>
		<rect x="302.572" y="278.949" style="fill:#E6E6E6;" width="7.774" height="6.546"/>
		<rect x="318.109" y="278.949" style="fill:#E6E6E6;" width="7.774" height="6.546"/>
		<rect x="333.658" y="278.949" style="fill:#E6E6E6;" width="7.774" height="6.546"/>
		<rect x="287.023" y="289.922" style="fill:#E6E6E6;" width="7.774" height="6.546"/>
		<rect x="302.572" y="289.922" style="fill:#E6E6E6;" width="7.774" height="6.546"/>
		<rect x="318.109" y="289.922" style="fill:#E6E6E6;" width="7.774" height="6.546"/>
		<rect x="333.658" y="289.922" style="fill:#E6E6E6;" width="7.774" height="6.546"/>
	</g>
	<g>
		<g>
			<g>
				<g>
					<g>
						<g>
							<path style="fill:#E0E0E0;" d="M673.734,337.672H492.988c-3.232,0-5.862-2.63-5.862-5.862V68.537
								c0-3.232,2.63-5.862,5.862-5.862h180.746c3.232,0,5.862,2.629,5.862,5.862V331.81
								C679.596,335.043,676.966,337.672,673.734,337.672z M492.988,62.925c-3.095,0-5.612,2.518-5.612,5.612V331.81
								c0,3.095,2.518,5.612,5.612,5.612h180.746c3.095,0,5.612-2.517,5.612-5.612V68.537c0-3.094-2.518-5.612-5.612-5.612H492.988z
								"/>
						</g>
					</g>
					<g>
						<g>
							<path style="fill:#E0E0E0;" d="M465.306,337.672H284.56c-3.232,0-5.862-2.63-5.862-5.862V68.537
								c0-3.232,2.629-5.862,5.862-5.862h180.747c3.232,0,5.862,2.629,5.862,5.862V331.81
								C471.168,335.043,468.538,337.672,465.306,337.672z M284.56,62.925c-3.094,0-5.612,2.518-5.612,5.612V331.81
								c0,3.095,2.518,5.612,5.612,5.612h180.747c3.095,0,5.612-2.517,5.612-5.612V68.537c0-3.094-2.518-5.612-5.612-5.612H284.56z"
								/>
						</g>
					</g>
				</g>
				<g>
					<g>
						<g>
							<path style="fill:#E0E0E0;" d="M257.012,337.672H76.266c-3.232,0-5.862-2.63-5.862-5.862V68.537
								c0-3.232,2.629-5.862,5.862-5.862h180.746c3.232,0,5.862,2.629,5.862,5.862V331.81
								C262.875,335.043,260.245,337.672,257.012,337.672z M76.266,62.925c-3.094,0-5.612,2.518-5.612,5.612V331.81
								c0,3.095,2.518,5.612,5.612,5.612h180.746c3.095,0,5.612-2.517,5.612-5.612V68.537c0-3.094-2.518-5.612-5.612-5.612H76.266z"
								/>
						</g>
					</g>
				</g>
			</g>
			<g>
				<g>
					<rect y="398.742" style="fill:#E0E0E0;" width="750" height="0.12"/>
				</g>
			</g>
		</g>
		<g>
			<rect x="653.626" y="428.118" style="fill:#EBEBEB;" width="55.729" height="0.421"/>
			<rect x="495.044" y="432.684" style="fill:#EBEBEB;" width="14.627" height="0.421"/>
			<rect x="40.645" y="415.321" style="fill:#EBEBEB;" width="72.674" height="0.421"/>
			<rect x="128.299" y="415.321" style="fill:#EBEBEB;" width="10.656" height="0.421"/>
			<rect x="173.586" y="422.425" style="fill:#EBEBEB;" width="157.613" height="0.421"/>
		</g>
	</g>
</g>
<g id="Background_simple" style="display:none;">
	<g style="display:inline;">
		<path style="fill:#407BFF;" d="M310.766,91.826c-21.564,2.847-42.358,8.907-60.801,18.413
			c-21.736,11.204-43.946,28.659-37.386,51.49c12.11,42.149,70.206,42.917,58.607,71.257c-13.139,32.101-4.328,69.757,54.63,80.228
			c111.982,19.889,247.351-96.484,209.331-160.43C511.477,112.975,425.266,76.712,310.766,91.826z"/>
		<path style="opacity:0.9;fill:#FFFFFF;" d="M310.766,91.826c-21.564,2.847-42.358,8.907-60.801,18.413
			c-21.736,11.204-43.946,28.659-37.386,51.49c12.11,42.149,70.206,42.917,58.607,71.257c-13.139,32.101-4.328,69.757,54.63,80.228
			c111.982,19.889,247.351-96.484,209.331-160.43C511.477,112.975,425.266,76.712,310.766,91.826z"/>
	</g>
</g>
<g id="Shadow">
	<g>
		<g>
			<path style="fill:#F5F5F5;" d="M660.715,437.17c0,2.628-111.066,4.759-248.074,4.759s-248.074-2.131-248.074-4.759
				c0-2.628,111.066-4.759,248.074-4.759S660.715,434.542,660.715,437.17z"/>
		</g>
	</g>
</g>
<g id="Sign">
	<g>
		<g>
			<g>
				<rect x="247.452" y="215.044" style="fill:#263238;" width="6.743" height="188.279"/>
			</g>
		</g>
		<g style="opacity:0.4;enable-background:new    ;">
			<g>
				<rect x="247.452" y="215.044" style="fill:#FFFFFF;" width="6.743" height="188.279"/>
			</g>
		</g>
		<g>
			<g>
				<path style="fill:#407BFF;" d="M283.046,218.129h-61.969c-1.521,0-2.754-1.233-2.754-2.754v-61.969
					c0-1.521,1.233-2.754,2.754-2.754h61.969c1.521,0,2.754,1.233,2.754,2.754v61.969
					C285.799,216.896,284.566,218.129,283.046,218.129z"/>
			</g>
			<g style="opacity:0.5;enable-background:new    ;">
				<path style="fill:#FFFFFF;" d="M283.046,218.129h-61.969c-1.521,0-2.754-1.233-2.754-2.754v-61.969
					c0-1.521,1.233-2.754,2.754-2.754h61.969c1.521,0,2.754,1.233,2.754,2.754v61.969
					C285.799,216.896,284.566,218.129,283.046,218.129z"/>
			</g>
			<g>
				<path style="fill:#FFFFFF;" d="M261.958,166.018c2.509,1.115,4.433,2.714,5.771,4.795c1.338,2.082,2.007,4.554,2.007,7.416
					c0,2.825-0.669,5.288-2.007,7.388c-1.338,2.1-3.262,3.708-5.771,4.823c-2.51,1.115-5.456,1.673-8.838,1.673h-8.81v11.263h-7.249
					v-39.031h16.059C256.503,164.345,259.449,164.902,261.958,166.018z M259.979,183.972c1.635-1.338,2.453-3.252,2.453-5.743
					c0-2.49-0.818-4.405-2.453-5.743c-1.636-1.338-4.034-2.007-7.193-2.007h-8.475v15.501h8.475
					C255.945,185.979,258.343,185.31,259.979,183.972z"/>
			</g>
		</g>
	</g>
</g>
<g id="Speech_Bubble">
	<g>
		<g>
			<g>
				<path style="fill:#407BFF;" d="M156.733,173.669c7.674-8.574,6.943-21.746-1.631-29.419c-8.574-7.674-21.746-6.943-29.419,1.631
					c-5.924,6.619-6.818,15.97-2.982,23.425l-2.243,5.842l6.611-0.09c0.085,0.079,0.159,0.165,0.246,0.243
					C135.888,182.973,149.06,182.243,156.733,173.669z"/>
			</g>
			<path style="fill:none;stroke:#407BFF;stroke-width:0.5;stroke-linecap:round;stroke-linejoin:round;stroke-miterlimit:10;" d="
				M152.98,139.061c6.059,3.029,10.388,9.276,11.095,16.013"/>
			<path style="fill:none;stroke:#407BFF;stroke-width:0.5;stroke-linecap:round;stroke-linejoin:round;stroke-miterlimit:10;" d="
				M164.291,158.175c0.184,1.017,0.155,2.071-0.084,3.076"/>
		</g>
		<g>
			<polygon style="fill:#FFFFFF;" points="140.797,168.646 131.248,161.536 133.729,158.204 140.132,162.972 148.93,152.476 
				152.114,155.145 			"/>
		</g>
	</g>
</g>
<g id="Character_2_00000020377495237311175840000001794203327372665244_">
	<g>
		<g>
			<g>
				<g>
					<polygon style="fill:#263238;" points="695.825,389.446 169.97,401.772 169.97,311.832 700.884,311.832 					"/>
					<polygon style="opacity:0.5;enable-background:new    ;" points="695.825,389.446 169.97,401.772 169.97,311.832 
						700.884,311.832 					"/>
					<g id="freepik--Car--inject-7">
						<path style="fill:#407BFF;" d="M149.744,334.908v45.614c-0.003,9.772,6.364,18.404,15.702,21.285l3.717,1.13
							c2.289,0.71,4.678,1.041,7.073,0.982l24.559-0.573c-2.917-10.207-3.174-20.991-0.746-31.326
							c7.859-33.45,41.347-54.196,74.798-46.337c33.45,7.859,54.196,41.347,46.337,74.798l249.897-5.943
							c-0.404-2.919-0.601-5.864-0.588-8.811c0.15-34.361,28.126-62.095,62.487-61.945c34.361,0.15,62.094,28.126,61.945,62.487
							c0,1.212-0.098,2.407-0.098,3.602c0.328-0.131,0.671-0.262,0.999-0.426l8.546-3.815c8.429-3.808,13.848-12.199,13.851-21.448
							v-92.899c0.001-8.738-4.841-16.758-12.574-20.826l-64.23-33.777c-0.735-0.392-1.3-1.041-1.588-1.823
							c-0.645-1.757,0.256-3.705,2.013-4.35l7.859-2.816c0.659-0.227,1.133-0.807,1.223-1.499c0.13-1.004-0.579-1.924-1.583-2.054
							c-30.519-4.257-149.221-19.778-211.618-12.149c-71.975,8.809-140.953,71.271-140.953,71.271
							c-52.966-1.981-102.412,16.455-123.696,25.705c-6.872,3-12.158,8.761-14.555,15.865l-7.286,21.579
							C150.281,329.144,149.777,332.013,149.744,334.908z"/>
						<path style="fill:#263238;" d="M571.146,394.538c-0.362-2.741-0.543-5.503-0.54-8.268c0-1.408,0.049-2.8,0.131-4.191
							l-45.189-18.485c-2.645-1.077-5.5-1.541-8.35-1.359L360.02,372.549c-2.569,0.162-5.078,0.853-7.368,2.03l-29.864,15.358
							c-0.213,3.551-0.722,7.078-1.523,10.544L571.146,394.538z"/>
						<path style="fill:#263238;" d="M718.239,364.182v-2.374l-25.558,7.826c1.49,5.419,2.245,11.014,2.243,16.635
							c0,1.212-0.098,2.407-0.098,3.602c0.328-0.131,0.671-0.262,0.999-0.426l8.563-3.815
							C712.817,381.823,718.236,373.432,718.239,364.182z"/>
						<path style="fill:#263238;" d="M156.997,396.895c2.439,2.256,5.355,3.935,8.53,4.912l3.717,1.13
							c2.289,0.71,4.678,1.041,7.073,0.982l24.559-0.573c-0.889-3.104-1.53-6.274-1.916-9.48L156.997,396.895z"/>
						<path style="fill:#263238;" d="M632.872,318.208c-2.825-0.001-5.646,0.174-8.449,0.525
							c-37.291,4.657-63.746,38.662-59.089,75.953l5.894-0.147c-0.405-2.919-0.601-5.864-0.588-8.811
							c0.15-34.361,28.126-62.095,62.487-61.945c34.361,0.15,62.094,28.126,61.945,62.487c0,1.212-0.098,2.407-0.098,3.602
							c0.327-0.131,0.671-0.262,0.999-0.426l4.912-2.227c0-0.327,0-0.639,0-0.95c-0.045-37.577-30.501-68.026-68.078-68.062
							L632.872,318.208z"/>
						<path style="fill:#263238;" d="M260.702,318.208c-5.813-0.001-11.601,0.742-17.225,2.211
							c-36.368,9.503-58.146,46.69-48.643,83.058l6.042-0.131c-2.917-10.207-3.174-20.991-0.745-31.326
							c7.859-33.45,41.347-54.196,74.798-46.337c33.45,7.859,54.196,41.347,46.337,74.798l6.025-0.147
							c0.98-4.635,1.474-9.359,1.473-14.096C328.755,348.657,298.283,318.199,260.702,318.208L260.702,318.208z"/>
						<path style="fill:#407BFF;" d="M319.93,265.876c-0.728,0.616-1.245,1.501-1.462,2.503c-0.515,2.374,0.753,4.766,2.833,5.343
							l25.977,7.281c2.301,0.652,4.688,0.832,7.048,0.532l192.607-23.863c4.687-0.595,9.057-3.02,12.367-6.863l25.267-29.436
							c0.842-0.973,1.375-2.237,1.514-3.592c0.345-3.35-1.756-6.372-4.693-6.75c-46.122-6.116-104.436-11.676-141.26-7.177
							C391.867,209.745,343.279,246.022,319.93,265.876z"/>
						<path style="opacity:0.8;fill:#FFFFFF;enable-background:new    ;" d="M320.798,265.876c-0.727,0.616-1.245,1.501-1.462,2.503
							c-0.515,2.374,0.753,4.766,2.833,5.343l25.977,7.281c2.301,0.652,4.688,0.832,7.049,0.532l49.083-3.365l139.212-9.543
							c4.687-0.595,11.932-9.209,17.055-16.202l24.89-31.052c0.842-0.973,1.375-2.237,1.514-3.592
							c0.345-3.35-1.756-6.372-4.693-6.75c-46.122-6.116-104.436-11.676-141.26-7.177
							C392.736,209.745,344.147,246.022,320.798,265.876z"/>
						<g style="opacity:0.3;">
							<path d="M446.62,284.227c-1.234-0.444-1.873-1.805-1.429-3.038l0,0c0.546-1.527,1.965-2.57,3.586-2.636l22.922-0.966
								c0.31-0.014,0.619,0.033,0.911,0.137c1.243,0.444,1.891,1.812,1.446,3.056l0,0c-0.556,1.527-1.978,2.568-3.602,2.636
								l-22.922,0.95C447.222,284.379,446.912,284.332,446.62,284.227z"/>
						</g>
						<path style="fill:#407BFF;" d="M617.085,218.554c-2.027,1.803-2.209,4.908-0.406,6.934l5.436,5.911
							c0.624,0.663,1.416,1.144,2.292,1.392l66.588,18.468c1.159,0.313,2.353,0.472,3.553,0.475h13.229
							c-0.688-0.459-1.392-0.884-2.129-1.277l-64.23-33.81c-0.001-0.001-0.003-0.001-0.004-0.002
							c-1.621-0.801-2.287-2.764-1.486-4.386l-20.859,5.223C618.334,217.681,617.655,218.048,617.085,218.554z"/>
						<path style="fill:#FFFFFF;enable-background:new    ;" d="M202.441,297.658l-22.72-2.474l-13.053,5.339
							c-2.744,1.122-4.794,3.479-5.525,6.353l0,0c-0.428,1.662-0.188,3.426,0.671,4.912l0.229,0.393
							c1.46,2.513,4.292,3.897,7.171,3.504l13.098-1.801c1.277-0.183,2.488-0.684,3.52-1.457l15.112-11.461L202.441,297.658z"/>
						<path style="fill:#407BFF;" d="M296.821,263.228l3.618,1.032c2.812,0.802,5.838,0.151,8.072-1.736
							c21.055-17.814,57.665-45.14,97.172-57.878c0.175-0.057,0.323-0.179,0.413-0.339c0.199-0.355,0.073-0.804-0.282-1.003
							l-4.912-2.521C343.909,220.544,296.821,263.228,296.821,263.228z"/>
						<path style="opacity:0.8;fill:#FFFFFF;enable-background:new    ;" d="M296.821,263.228l3.618,1.032
							c2.812,0.802,5.838,0.151,8.072-1.736c21.055-17.814,57.665-45.14,97.172-57.878c0.175-0.057,0.323-0.179,0.413-0.339
							c0.199-0.355,0.073-0.804-0.282-1.003l-4.912-2.521C343.909,220.544,296.821,263.228,296.821,263.228z"/>
						<path style="opacity:0.2;fill:#FFFFFF;enable-background:new    ;" d="M512.745,287.28l-191.479,13.693l3.604,23.615
							c1.104,7.235,3.786,14.138,7.856,20.22l16.004,23.919l163.427-22.096l77.263-59.351H512.745z"/>
						<circle style="fill:#263238;" cx="632.811" cy="386.263" r="51.836"/>
						<circle style="opacity:0.4;fill:#FFFFFF;enable-background:new    ;" cx="632.811" cy="386.263" r="31.779"/>
						<g style="opacity:0.3;">
							<path style="fill:#FFFFFF;" d="M635.36,360.22v16.291c0,1.401-1.136,2.538-2.538,2.538h-0.016
								c-1.402,0-2.538-1.136-2.538-2.538V360.22c0-1.402,1.136-2.538,2.538-2.538h0.016
								C634.224,357.682,635.36,358.819,635.36,360.22z"/>
						</g>
						<g style="opacity:0.3;">
							<path style="fill:#FFFFFF;" d="M635.36,396.027v16.291c0,1.402-1.136,2.538-2.538,2.538h-0.016
								c-1.402,0-2.538-1.136-2.538-2.538v-16.291c0-1.402,1.136-2.538,2.538-2.538h0.016
								C634.224,393.49,635.36,394.626,635.36,396.027z"/>
						</g>
						<g style="opacity:0.3;">
							<path style="fill:#FFFFFF;" d="M642.522,383.599c-1.218,0.694-2.767,0.27-3.461-0.948l0,0
								c-0.001-0.002-0.003-0.004-0.004-0.007c-0.698-1.215-0.278-2.767,0.937-3.465l14.097-8.186
								c1.221-0.704,2.782-0.287,3.487,0.933l0,0c0.693,1.217,0.277,2.766-0.933,3.471l-14.097,8.186
								C642.539,383.589,642.531,383.594,642.522,383.599z"/>
						</g>
						<g style="opacity:0.3;">
							<path style="fill:#FFFFFF;" d="M611.515,401.434c-1.215,0.698-2.767,0.278-3.464-0.937l0,0
								c-0.001-0.002-0.003-0.004-0.004-0.007c-0.698-1.215-0.278-2.767,0.937-3.464l14.097-8.186c0,0,0.001-0.001,0.001-0.001
								c1.212-0.705,2.765-0.294,3.47,0.918l0,0c0.707,1.217,0.297,2.776-0.917,3.487l-14.113,8.186
								C611.519,401.432,611.517,401.433,611.515,401.434z"/>
						</g>
						<g style="opacity:0.3;">
							<path style="fill:#FFFFFF;" d="M654.091,401.496l-14.097-8.186c-1.22-0.706-1.638-2.267-0.933-3.487l0,0
								c0.711-1.214,2.271-1.624,3.487-0.917l14.097,8.186c1.21,0.705,1.627,2.254,0.933,3.471l0,0
								C656.872,401.783,655.312,402.201,654.091,401.496z"/>
						</g>
						<g style="opacity:0.3;">
							<path style="fill:#FFFFFF;" d="M626.548,382.657c-0.702,1.213-2.254,1.628-3.467,0.927l-14.097-8.186
								c-0.002-0.001-0.004-0.003-0.007-0.004c-1.213-0.702-1.628-2.254-0.927-3.467l0,0c0.001-0.002,0.003-0.004,0.004-0.007
								c0.701-1.213,2.254-1.628,3.467-0.927l14.113,8.186c0,0,0.001,0.001,0.001,0.001c1.211,0.706,1.621,2.259,0.915,3.47l0,0
								C626.551,382.653,626.549,382.655,626.548,382.657z"/>
						</g>
						<path style="fill:#263238;" d="M628.549,386.253c0-2.351,1.906-4.257,4.257-4.257c0.005,0,0.011,0,0.016,0
							c2.36,0,4.273,1.913,4.273,4.273c0,2.36-1.913,4.273-4.273,4.273s-4.273-1.913-4.273-4.273
							C628.549,386.264,628.549,386.258,628.549,386.253z"/>
						<circle style="fill:#263238;" cx="260.701" cy="386.272" r="51.836"/>
						<circle style="opacity:0.4;fill:#FFFFFF;enable-background:new    ;" cx="260.701" cy="386.272" r="31.78"/>
						<g style="opacity:0.3;">
							<path style="fill:#FFFFFF;" d="M263.24,360.22v16.291c0,1.401-1.136,2.538-2.538,2.538h-0.016
								c-1.401,0-2.538-1.136-2.538-2.538V360.22c0-1.402,1.136-2.538,2.538-2.538h0.016
								C262.104,357.682,263.24,358.819,263.24,360.22z"/>
						</g>
						<g style="opacity:0.3;">
							<path style="fill:#FFFFFF;" d="M263.24,396.027v16.291c0,1.402-1.136,2.538-2.538,2.538h-0.016
								c-1.401,0-2.538-1.136-2.538-2.538v-16.291c0-1.402,1.136-2.538,2.538-2.538h0.016
								C262.104,393.49,263.24,394.626,263.24,396.027z"/>
						</g>
						<g style="opacity:0.3;">
							<path style="fill:#FFFFFF;" d="M270.393,383.604c-1.212,0.685-2.75,0.259-3.436-0.953l0,0c0,0-0.001-0.001-0.001-0.001
								c-0.705-1.211-0.294-2.765,0.918-3.47l14.113-8.186c0.002-0.001,0.004-0.003,0.007-0.004
								c1.215-0.698,2.767-0.279,3.465,0.937l0,0c0.001,0.002,0.003,0.004,0.004,0.007c0.698,1.216,0.279,2.767-0.937,3.465
								l-14.097,8.186C270.416,383.591,270.405,383.598,270.393,383.604z"/>
						</g>
						<g style="opacity:0.3;">
							<path style="fill:#FFFFFF;" d="M235.93,400.497L235.93,400.497c-0.001-0.002-0.003-0.004-0.004-0.007
								c-0.698-1.215-0.278-2.767,0.937-3.464l14.097-8.186c1.217-0.707,2.776-0.297,3.487,0.917l0,0
								c0.704,1.221,0.287,2.782-0.933,3.487l-14.097,8.186C238.197,402.135,236.636,401.717,235.93,400.497z"/>
						</g>
						<g style="opacity:0.3;">
							<path style="fill:#FFFFFF;" d="M285.454,400.569c-0.701,1.213-2.254,1.628-3.467,0.927l-14.113-8.186
								c-1.214-0.711-1.624-2.271-0.917-3.487l0,0c0,0,0-0.001,0.001-0.001c0.706-1.211,2.259-1.621,3.47-0.916l14.097,8.186
								c0.002,0.001,0.004,0.003,0.007,0.004c1.213,0.702,1.628,2.254,0.927,3.467l0,0
								C285.457,400.565,285.456,400.567,285.454,400.569z"/>
						</g>
						<g style="opacity:0.3;">
							<path style="fill:#FFFFFF;" d="M254.433,382.677c-0.708,1.209-2.263,1.616-3.472,0.907l-14.097-8.186
								c-0.002-0.001-0.004-0.003-0.007-0.004c-1.213-0.702-1.628-2.254-0.927-3.467l0,0c0.706-1.22,2.267-1.638,3.487-0.933
								l14.097,8.186c0.002,0.001,0.004,0.003,0.007,0.004c1.213,0.702,1.628,2.254,0.927,3.467l0,0
								C254.443,382.66,254.438,382.668,254.433,382.677z"/>
						</g>
						<path style="fill:#263238;" d="M260.702,381.996L260.702,381.996c2.36,0,4.273,1.913,4.273,4.273
							c0,2.36-1.913,4.273-4.273,4.273c-2.36,0-4.273-1.913-4.273-4.273C256.429,383.909,258.342,381.996,260.702,381.996z"/>
						<path style="opacity:0.3;enable-background:new    ;" d="M712.8,288.476c1.727-0.538,2.691-2.373,2.153-4.1
							c-0.601-10.912-2.921-20.629-9.611-27.31c-0.448-1.469-1.858-2.429-3.389-2.308l-39.507,3.733
							c-0.688,0.074-1.334,0.363-1.847,0.827c-1.341,1.213-1.445,3.284-0.233,4.625l11.314,12.198c0.393,0.422,0.89,0.732,1.441,0.9
							l37.821,11.461C711.551,288.673,712.196,288.664,712.8,288.476z"/>
						<path style="fill:#263238;" d="M318.468,268.36c-0.515,2.374,0.753,4.766,2.833,5.343l25.977,7.281
							c2.301,0.652,3.839,0.934,6.893,0.691l8.387-0.645l-7.594-41.026c-17.816,11.701-19.036,12.234-35.034,25.853
							C319.203,266.473,318.686,267.358,318.468,268.36z"/>
						<path style="fill:#263238;" d="M487.689,202.51l-16.319,71.159l21.346-1.535l9.748-68.959
							C497.469,202.89,492.544,202.668,487.689,202.51z"/>
						<path style="fill:#263238;" d="M555.422,258.826l29.982-37.452c0.862-0.981,1.408-2.265,1.547-3.643
							c0.337-3.351-1.771-6.366-4.708-6.736c-6.143-0.834-12.679-1.637-19.215-2.422"/>
						<g>
							<path style="fill:#407BFF;" d="M342.095,275.594c-5.19,0.061-9.447-4.096-9.508-9.286l0,0
								c-0.05-4.414,2.974-8.27,7.272-9.274l12.523-2.936l3.186,20.985l-13.224,0.505
								C342.261,275.591,342.178,275.593,342.095,275.594z"/>
							<polygon style="opacity:0.3;enable-background:new    ;" points="351.902,275.226 355.568,275.083 352.382,254.098 
								348.806,254.944 							"/>
						</g>
					</g>
					
						<path style="opacity:0.6;fill:none;stroke:#000000;stroke-width:0.5;stroke-linecap:round;stroke-linejoin:round;stroke-miterlimit:10;" d="
						M492.273,272.138c0.154,7.375,0.074,15.177-0.723,19.162c-1.771,8.857-15.578,73.639-15.578,73.639"/>
					
						<path style="opacity:0.6;fill:none;stroke:#000000;stroke-width:0.5;stroke-linecap:round;stroke-linejoin:round;stroke-miterlimit:10;" d="
						M318.353,269.923c0,0,4.127,56.014,10.41,67.345c6.128,11.051,23.889,37.311,23.889,37.311"/>
					
						<path style="opacity:0.6;fill:none;stroke:#000000;stroke-width:0.5;stroke-linecap:round;stroke-linejoin:round;stroke-miterlimit:10;" d="
						M303.943,264.596c0,0-44.146,10.907-57.137,12.988c-10.666,1.709-54.032,12.26-67.085,17.6"/>
				</g>
				<path style="opacity:0.8;fill:#FFFFFF;enable-background:new    ;" d="M617.085,218.554c-2.027,1.803-2.209,4.908-0.406,6.934
					l5.436,5.911c0.624,0.663,1.416,1.144,2.292,1.392l66.588,18.468c1.159,0.313,2.353,0.472,3.553,0.475h13.229
					c-0.688-0.459-1.392-0.884-2.129-1.277l-64.23-33.81c-0.001-0.001-0.003-0.001-0.004-0.002
					c-1.621-0.801-2.287-2.764-1.486-4.386l-20.859,5.223C618.334,217.681,617.655,218.048,617.085,218.554z"/>
			</g>
		</g>
		<g>
			<g>
				<g>
					<g>
						<g>
							<path style="fill:#B97964;" d="M451.234,258.991c0,0-0.85-5.457,2.2-14.988c0-0.01-0.5-0.249-0.5-0.259
								c0.421-1.333,0.864-2.564,1.279-3.629c0.01-0.031,0.009-0.041,0.009-0.041l-13.366,7.761
								c0.224,3.081-1.042,8.988-1.769,11.477c0,0-1.784,4.495,4.25,4.86C447.747,264.437,451.234,258.991,451.234,258.991z"/>
							<path style="opacity:0.2;" d="M440.512,252.148l7.611-1.497c-0.751,2.333-2.91,5.064-8.18,5.147
								C439.943,255.798,440.541,253.18,440.512,252.148z"/>
						</g>
						<g>
							<path style="fill:#B97964;" d="M454.5,233.691c-1.116,8.308-1.577,13.016-6.107,16.955c-6.813,5.925-16.62,1.47-18.013-7.029
								c-1.253-7.65,0.781-19.951,9.2-22.602C447.875,218.404,455.615,225.384,454.5,233.691z"/>
							<path style="fill:#263238;" d="M456.283,223.734c-0.813-4.681-12.335-5.564-15.724-3.447
								c-0.507,0.316,6.072,4.239,5.669,4.058l3.134,1.344c0.503-0.074,1.434,0.575,1.826,2.149c0,0-1.29,12.768,2.068,16.733
								c3.016-1.21,3.553-6.269,4.69-9.222C459.639,230.949,461.764,224.479,456.283,223.734z"/>
							<path style="fill:#B97964;" d="M457.293,240.886c-0.822,2.1-2.542,3.615-4.256,4.318c-2.58,1.057-3.311-1.733-2.885-4.345
								c0.383-2.351,1.282-5.184,4.011-5.13C456.851,235.783,458.233,238.484,457.293,240.886z"/>
							<path style="fill:#263238;" d="M442.381,235.238c-0.062,0.854-0.564,1.509-1.123,1.463c-0.559-0.046-0.962-0.775-0.9-1.629
								c0.062-0.854,0.564-1.509,1.123-1.463C442.04,233.654,442.443,234.384,442.381,235.238z"/>
							<path style="fill:#263238;" d="M433.994,234.799c-0.061,0.854-0.564,1.509-1.123,1.463c-0.559-0.046-0.961-0.775-0.9-1.629
								c0.062-0.854,0.565-1.509,1.123-1.463C433.653,233.216,434.056,233.945,433.994,234.799z"/>
							<path style="fill:#A24E3F;" d="M436.753,234.523c0,0-3.01,4.048-4.001,5.713c1.111,1.159,3.194,0.812,3.194,0.812
								L436.753,234.523z"/>
							<path style="fill:#263238;" d="M444.759,231.363c-0.133,0.043-0.285,0.016-0.397-0.085c-1.332-1.203-2.766-0.852-2.78-0.849
								c-0.214,0.055-0.435-0.074-0.492-0.287c-0.057-0.214,0.071-0.431,0.285-0.487c0.076-0.02,1.872-0.459,3.525,1.033
								c0.165,0.149,0.178,0.402,0.03,0.564C444.882,231.306,444.823,231.343,444.759,231.363z"/>
							
								<path style="fill:none;stroke:#263238;stroke-width:0.75;stroke-linecap:round;stroke-linejoin:round;stroke-miterlimit:10;" d="
								M438.548,243.971c1.384,0.111,2.509-0.503,3.656-1.457"/>
						</g>
						
							<path style="opacity:0.2;fill:none;stroke:#000000;stroke-width:0.5;stroke-linecap:round;stroke-linejoin:round;stroke-miterlimit:10;" d="
							M455.553,238.441c-0.3-0.522-0.973-0.755-1.567-0.654c-0.594,0.101-1.109,0.484-1.5,0.942
							c-0.469,0.55-0.792,1.225-0.924,1.936"/>
					</g>
					<path style="fill:#263238;" d="M430.559,230.928c-0.073-0.021-0.141-0.064-0.194-0.127c-0.143-0.17-0.124-0.424,0.044-0.566
						c1.682-1.434,3.447-0.905,3.529-0.891c0.211,0.065,0.333,0.289,0.271,0.501c-0.062,0.212-0.282,0.331-0.493,0.269
						c-0.073-0.025-1.438-0.415-2.788,0.736C430.823,230.94,430.683,230.964,430.559,230.928z"/>
				</g>
				<g>
					<path style="fill:#263238;" d="M458.256,220.23c-0.518-1.906-2.921-2.455-4.782-2.175c0.214-2.281-2.69-3.767-4.568-3.809
						c-1.956-0.045-2.7,0.698-2.7,0.698c0.149,0.04-0.529-1.165-0.963-1.653c-1.603-1.799-4.254-2.462-6.449-1.613
						c-2.195,0.849-3.806,3.161-3.918,5.623c-1.144-1.302-3.317-1.373-4.531-0.148c-1.214,1.225-1.241,3.516-0.056,4.776
						c-1.438,0.01-2.718,1.454-2.628,2.967c0.09,1.513,1.53,2.783,2.958,2.609c-0.006,1.696,0.061,3.818,0.055,5.515l2.594-6.096
						c1.186-0.351,1.436-0.869,1.74-2.127c0.768,1.643,2.116,1.587,3.854,1.614c1.737,0.027,3.448-1.042,4.258-2.66
						c0.808,1.717,2.442,3.075,4.259,3.131c1.817,0.055,3.654-1.445,3.749-3.357c0.984,1.691,3.214,2.429,4.935,1.633
						C457.783,224.363,458.774,222.136,458.256,220.23z"/>
				</g>
			</g>
			<g>
				<g>
					<path style="fill:#B97964;" d="M438.311,257.703l-31.9,10.656l-29.339-1.499l-1.129,9.176c0,0,8.756,1.844,17.296,3
						l27.436-1.881c9.154-2.166,18.185-4.806,18.185-4.806L438.311,257.703z"/>
					<g>
						<path style="fill:#263238;" d="M431.579,276.854l3.288-19.111l12.417-2.165c0.544-0.08,10.63-0.909,13.655,10.157l0.676,8.795
							L431.579,276.854z"/>
						<path style="fill:#263238;" d="M441.672,275.941c-0.688-0.01-20.454,1.909-20.454,1.909l-3.572-14.12
							c0,0,8.997-3.764,17.221-5.987c9.191-2.485,17.811-3.256,19.797,1.034C458.426,266.906,441.672,275.941,441.672,275.941z"/>
					</g>
				</g>
			</g>
			<path style="fill:#263238;" d="M367.439,262.682c-0.563,0.34-7.213,7.213-7.213,7.213l1.297,8.519l8.361-8.631L367.439,262.682z"
				/>
			<path style="fill:#263238;" d="M377.454,280.452L377.454,280.452c-1.47,0.725-3.25,0.122-3.975-1.348l-13.266-26.879
				c-0.725-1.47-0.122-3.25,1.348-3.975l0,0c1.47-0.725,3.25-0.122,3.975,1.348l13.266,26.879
				C379.528,277.947,378.924,279.727,377.454,280.452z"/>
			<path style="fill:#B97964;" d="M387.007,267.594l-10.919-1.467l-3.158-3.819c0,0-5.547-0.498-6.738,0.491
				c-1.191,0.989-2.39,4.14-2.39,4.14s-1.445,2.583,1.032,3.939c0,0-1.568,2.299,1.227,3.922c0,0-2.06,1.163,0.896,2.379
				c2.956,1.216,5.295,0.509,7.105-0.141c1.81-0.65,5.013-0.374,5.013-0.374l9.929,1.751L387.007,267.594z"/>
		</g>
		<g>
			<path style="fill:none;stroke:#407BFF;stroke-width:0.75;stroke-linecap:round;stroke-linejoin:round;stroke-miterlimit:10;" d="
				M521.854,187.301c10.946,0.542,23.064,1.524,33.567,2.981"/>
			<path style="fill:none;stroke:#407BFF;stroke-width:0.75;stroke-linecap:round;stroke-linejoin:round;stroke-miterlimit:10;" d="
				M559.171,190.692c1.942,0.189,3.914,0.386,5.903,0.592"/>
		</g>
	</g>
</g>
<g id="Traffic_Cone">
	<g>
		<g>
			<g>
				<g>
					<polygon style="fill:#407BFF;" points="231.126,454.332 241.33,441.86 249.266,381.772 259.47,381.772 269.871,441.921 
						279.499,454.332 					"/>
				</g>
				<g>
					<polygon style="fill:#FFFFFF;" points="243.136,428.184 267.495,428.184 263.987,407.895 245.816,407.895 					"/>
				</g>
			</g>
		</g>
		<polygon style="opacity:0.3;" points="241.33,441.86 269.871,441.921 279.499,454.332 231.126,454.332 		"/>
	</g>
	<g>
		<g>
			<g>
				<g>
					<polygon style="fill:#407BFF;" points="430.249,454.332 440.453,441.86 448.389,381.772 458.592,381.772 468.993,441.921 
						478.622,454.332 					"/>
				</g>
				<g>
					<polygon style="fill:#FFFFFF;" points="442.259,428.184 466.618,428.184 463.11,407.895 444.939,407.895 					"/>
				</g>
			</g>
		</g>
		<polygon style="opacity:0.3;" points="440.453,441.86 468.993,441.921 478.622,454.332 430.249,454.332 		"/>
	</g>
	<g>
		<g>
			<g>
				<g>
					<polygon style="fill:#407BFF;" points="605.789,452.021 615.993,439.55 623.929,379.462 634.133,379.462 644.534,439.611 
						654.162,452.021 					"/>
				</g>
				<g>
					<polygon style="fill:#FFFFFF;" points="617.799,425.873 642.158,425.873 638.65,405.584 620.479,405.584 					"/>
				</g>
			</g>
		</g>
		<polygon style="opacity:0.3;" points="615.993,439.55 644.534,439.611 654.162,452.021 605.789,452.021 		"/>
	</g>
</g>
<g id="Character_1">
	<g>
		<g>
			<polygon style="fill:#EEC1BB;" points="50.729,437.934 59.486,438.792 65.957,416.622 52.636,415.173 			"/>
			<g>
				<path style="fill:#263238;" d="M60.754,434.925h-3.126c-0.707,0-1.362,0.358-1.78,0.929c-1.803,2.462-3.158,1.531-5.118-0.783
					c-1.247-0.145-1.582,1.285-1.684,1.67l-2.337,8.501c-0.203,0.71,0.208,1.45,0.918,1.653c0.126,0.036,0.257,0.053,0.389,0.051
					c3.796,0,5.592,0,10.318,0h14.451c3.939,0,4.756-3.97,3.133-4.337c-7.297-1.612-12.464-3.76-14.719-5.882
					C60.779,436.354,61.208,436.076,60.754,434.925z"/>
				<path style="fill:#407BFF;" d="M67.538,437.342c0.329-0.237,0.526-0.615,0.531-1.02c0.028-0.217-0.071-0.432-0.255-0.551
					c-0.98-0.694-4.888,1.133-5.327,1.347c-0.049,0.018-0.087,0.056-0.105,0.105c-0.032,0.09,0.014,0.19,0.105,0.222
					c0.961,0.227,1.942,0.354,2.929,0.378C66.156,437.892,66.899,437.724,67.538,437.342z M67.568,436.067
					c0.08,0.049,0.12,0.143,0.102,0.235c-0.016,0.293-0.158,0.564-0.388,0.745c-0.888,0.663-3.031,0.378-4.184,0.163
					C64.721,436.495,67.027,435.689,67.568,436.067z"/>
				<path style="fill:#407BFF;" d="M62.619,437.485c1.174-0.49,3.633-2.419,3.5-3.439c-0.02-0.214-0.174-0.469-0.704-0.541
					c-2.143-0.245-3.062,3.603-3.062,3.766c-0.021,0.066-0.001,0.138,0.051,0.184c0.04,0.012,0.083,0.012,0.122,0L62.619,437.485z
					 M65.343,433.821c0.398,0.041,0.398,0.184,0.398,0.235c0.112,0.622-1.674,2.225-2.949,2.898
					c0.265-0.898,1.051-3.143,2.409-3.143L65.343,433.821z"/>
				<path style="fill:none;stroke:#407BFF;stroke-width:0.5;stroke-linecap:round;stroke-linejoin:round;stroke-miterlimit:10;" d="
					M62.924,437.338c-1.077,0.147-2.076,0.79-2.655,1.71"/>
				<path style="fill:none;stroke:#407BFF;stroke-width:0.5;stroke-linecap:round;stroke-linejoin:round;stroke-miterlimit:10;" d="
					M64.867,438.8c-1.077,0.147-2.076,0.79-2.655,1.71"/>
				<path style="fill:none;stroke:#407BFF;stroke-width:0.5;stroke-linecap:round;stroke-linejoin:round;stroke-miterlimit:10;" d="
					M67.284,440.03c-1.077,0.147-2.076,0.79-2.655,1.71"/>
			</g>
			<polygon style="opacity:0.3;" points="62.537,428.339 61.743,431.058 51.438,429.475 51.625,427.246 			"/>
		</g>
		<g>
			<polygon style="fill:#EEC1BB;" points="101.7,437.934 110.456,438.792 116.927,416.622 103.606,415.173 			"/>
			<g>
				<path style="fill:#263238;" d="M111.724,434.925h-3.126c-0.707,0-1.362,0.358-1.78,0.929c-1.803,2.462-3.158,1.531-5.118-0.783
					c-1.247-0.145-1.582,1.285-1.684,1.67l-2.337,8.501c-0.203,0.71,0.208,1.45,0.918,1.653c0.126,0.036,0.257,0.053,0.389,0.051
					c3.796,0,5.593,0,10.318,0h14.451c3.939,0,4.756-3.97,3.133-4.337c-7.297-1.612-12.464-3.76-14.719-5.882
					C111.749,436.354,112.179,436.076,111.724,434.925z"/>
				<path style="fill:#407BFF;" d="M118.508,437.342c0.329-0.237,0.526-0.615,0.531-1.02c0.028-0.217-0.071-0.432-0.255-0.551
					c-0.98-0.694-4.888,1.133-5.327,1.347c-0.049,0.018-0.087,0.056-0.105,0.105c-0.032,0.09,0.015,0.19,0.105,0.222
					c0.961,0.227,1.942,0.354,2.929,0.378C117.126,437.892,117.869,437.724,118.508,437.342z M118.538,436.067
					c0.08,0.049,0.12,0.143,0.102,0.235c-0.016,0.293-0.158,0.564-0.388,0.745c-0.888,0.663-3.031,0.378-4.184,0.163
					C115.691,436.495,117.998,435.689,118.538,436.067z"/>
				<path style="fill:#407BFF;" d="M113.589,437.485c1.174-0.49,3.633-2.419,3.5-3.439c-0.02-0.214-0.173-0.469-0.704-0.541
					c-2.143-0.245-3.062,3.603-3.062,3.766c-0.021,0.066-0.001,0.138,0.051,0.184c0.04,0.012,0.083,0.012,0.123,0L113.589,437.485z
					 M116.314,433.821c0.398,0.041,0.398,0.184,0.398,0.235c0.112,0.622-1.674,2.225-2.949,2.898
					c0.265-0.898,1.051-3.143,2.408-3.143L116.314,433.821z"/>
				<path style="fill:none;stroke:#407BFF;stroke-width:0.5;stroke-linecap:round;stroke-linejoin:round;stroke-miterlimit:10;" d="
					M113.894,437.338c-1.077,0.147-2.076,0.79-2.655,1.71"/>
				<path style="fill:none;stroke:#407BFF;stroke-width:0.5;stroke-linecap:round;stroke-linejoin:round;stroke-miterlimit:10;" d="
					M115.837,438.8c-1.077,0.147-2.076,0.79-2.655,1.71"/>
				<path style="fill:none;stroke:#407BFF;stroke-width:0.5;stroke-linecap:round;stroke-linejoin:round;stroke-miterlimit:10;" d="
					M118.255,440.03c-1.077,0.147-2.076,0.79-2.655,1.71"/>
			</g>
			<polygon style="opacity:0.3;" points="113.507,428.339 112.713,431.058 102.408,429.475 102.595,427.246 			"/>
		</g>
		<g>
			<g>
				<g>
					<g>
						<g>
							<path style="fill:#407BFF;" d="M120.415,270.876c0,0,7.257,32.048,10.716,59.964c1.054,8.508,1.255,19.886-0.607,28.262
								l-13.988,69.541l-17.602-1.763c2.766-29.992,6.621-66.982,7.725-82.72c-3.872-18.443-12.122-40.768-20.234-62.97
								L120.415,270.876z"/>
						</g>
					</g>
				</g>
				<path style="fill:#407BFF;" d="M62.576,349.759c0.398-1.734,1.034-5.258,1.814-9.904c-0.024-0.005-0.05-0.011-0.073-0.016
					c0.572-6.145,1.63-34.647,3.574-52.827c1.494-11.58,4.454-19.416,7.434-23.253c0.154-0.197,0.294-0.376,0.422-0.536
					c0.495-0.618,0.796-0.958,0.796-0.958c0.567,0.142,1.13,0.274,1.69,0.396c0.21,0.046,0.418,0.091,0.625,0.135
					c21.04,4.399,39.556-1.131,39.556-1.131c1.937,4.783,3.384,14.983,4.797,25.56c-2.201,2.415-11.859,5.549-22.94,7.625
					l-3.16,14.29c-1.663,8.86-3.797,17.55-5.611,25.375l-1.895,8.57c-0.115,0.562-0.228,1.12-0.335,1.667
					c-0.962,4.927-23.839,84.308-23.839,84.308l-14.904-0.873C50.528,428.186,57.185,373.246,62.576,349.759z"/>
			</g>
			<path style="opacity:0.2;enable-background:new    ;" d="M96.908,310.46c-0.058,0.292,6.826-24.73,6.826-24.73
				s5.796,22.34-3.023,36.313L96.908,310.46z"/>
		</g>
		<g>
			<g>
				<g>
					<path style="fill:#EEC1BB;" d="M82.096,197.568c0,0,3.501,2.692,8.008,6.576c0.939,0.809,1.973,1.509,3.067,2.09
						c2.953,1.569,5.646,2.466,6.375,1.042c0.162-0.313,0.287-0.652,0.379-1.008c0.619-2.384,0.365-5.736-1.562-7.27
						c-2.173-1.73-3.221-3.21-2.829-5.551c0.206-1.328,0.686-2.698,1.247-4.029l-1.71-1.999l-8.944-9.026
						C86.351,184.42,86.807,194.296,82.096,197.568z"/>
				</g>
				<path style="opacity:0.2;" d="M95.461,193.961c-2.46-1.46-5.159-3.993-4.835-6.887c0.144-1.218,0.407-2.373,0.699-3.113
					l4.996,6.615C95.91,191.642,95.761,192.347,95.461,193.961z"/>
				<path style="fill:#EEC1BB;" d="M83.595,168.709c0.842,9.19,1.004,13.087,5.746,17.905c7.133,7.248,18.107,4.81,19.996-4.299
					c1.701-8.199,0.038-21.849-8.984-25.711C91.466,152.799,82.753,159.519,83.595,168.709z"/>
				<path style="fill:#263238;" d="M95.041,171.606c0.048,0.86,0.576,1.568,1.181,1.581c0.604,0.013,1.055-0.674,1.007-1.535
					c-0.048-0.86-0.576-1.568-1.181-1.581C95.445,170.059,94.994,170.746,95.041,171.606z"/>
				<path style="fill:#263238;" d="M104.565,171.476c0.048,0.833,0.576,1.52,1.178,1.533c0.602,0.013,1.052-0.653,1.004-1.487
					c-0.048-0.833-0.576-1.52-1.178-1.532C104.966,169.977,104.517,170.642,104.565,171.476z"/>
				<path style="fill:#263238;" d="M93.58,168.314c0.117,0.013,0.236-0.021,0.327-0.105c1.416-1.311,3.01-0.851,3.028-0.845
					c0.236,0.069,0.475-0.065,0.529-0.306c0.053-0.241-0.097-0.494-0.336-0.566c-0.083-0.025-2.084-0.604-3.841,1.023
					c-0.175,0.162-0.178,0.449-0.008,0.641C93.363,168.248,93.471,168.302,93.58,168.314z"/>
				<path style="fill:#263238;" d="M107.505,167.856c0.109,0.027,0.224,0.013,0.322-0.048c0.202-0.126,0.255-0.405,0.118-0.622
					c-1.376-2.175-3.421-2.308-3.509-2.311c-0.245-0.013-0.439,0.18-0.435,0.431c0.004,0.25,0.206,0.464,0.45,0.478
					c0.08,0.004,1.666,0.13,2.76,1.86C107.283,167.755,107.39,167.829,107.505,167.856z"/>
				<path style="fill:#263238;" d="M87.51,174.474c0,0,2.836-4.286,1.667-12.633c-0.196-1.399,0.689-2.724,2.076-2.993
					c3.964-0.77,9.265-5.771,15.733,4.162c0,0-3.084-11.898-21.142-7.105c-16.07,4.266-5.068,17.886-3.41,19.287
					C84.092,176.592,87.51,174.474,87.51,174.474z"/>
				<path style="fill:#EEC1BB;" d="M80.815,176.198c1.085,1.885,2.849,3.068,4.466,3.474c2.432,0.61,3.689-3.301,2.858-5.738
					c-0.748-2.194-3.138-3.646-5.505-3.168C80.302,171.238,79.574,174.043,80.815,176.198z"/>
				<path style="fill:#263238;" d="M102.248,180.454c-0.748,1.152-1.647,3.383-1.647,3.383c-0.217-0.045-0.434-0.09-0.648-0.146
					c-2.925-0.685-4.057-1.969-4.423-3.185c-0.198-0.666-0.159-1.318-0.06-1.833c0.109-0.598,0.323-0.999,0.323-0.999
					c1.334,1.29,4.012,2.138,5.462,2.531C101.86,180.376,102.248,180.454,102.248,180.454z"/>
				<path style="fill:#FFFFFF;" d="M101.255,180.205l-0.511,0.985c-2.754-0.652-4.606-1.48-5.273-2.517
					c0.109-0.598,0.323-0.999,0.323-0.999C97.127,178.963,99.805,179.811,101.255,180.205z"/>
				<path style="fill:#DC5753;" d="M99.953,183.69c-2.925-0.685-4.057-1.969-4.423-3.185c0.988,0.272,2.149,0.709,3.098,1.404
					C99.355,182.438,99.74,183.081,99.953,183.69z"/>
				<path style="fill:#D4827D;" d="M102.095,171.225c0,0,1.438,3.44,3.06,5.584c0.283,0.375,0.108,0.922-0.333,1.084
					c-1.135,0.418-2.463,0.04-2.463,0.04L102.095,171.225z"/>
			</g>
			<path style="fill:#263238;" d="M95.865,170.051l2.109-0.498C97.974,169.553,96.821,171.125,95.865,170.051z"/>
			<path style="fill:#263238;" d="M105.352,170.011l2.109-0.498C107.461,169.513,106.307,171.086,105.352,170.011z"/>
			<g>
				<path style="fill:#263238;" d="M108.595,166.897c0,0,5.565-6.584,1.852-12.011c-1.395-2.04-3.958-2.344-6.219-3.34
					c-5.218-2.299-9.447-2.763-16.106,3.763c-6.928,6.79-8.181,9.077-0.54,17.442c0,0-0.825-1.094,2-3.583
					c2.825-2.489,5.943-4.703,4.429-7.117c0,0,2.349,0.906,2.517,3.141l4.131-1.128c0,0-0.179-1.597-1.272-3.195
					c0,0,2.141,1.261,2.836,3.111l3.574,0.673c0,0-0.525-3.279-1.534-4.456C104.264,160.196,107.538,163.562,108.595,166.897z"/>
			</g>
		</g>
		
			<path style="opacity:0.2;fill:none;stroke:#000000;stroke-width:0.5;stroke-linecap:round;stroke-linejoin:round;stroke-miterlimit:10;" d="
			M86.275,175.928c-0.076-0.867-0.479-1.702-1.11-2.301c-0.631-0.6-1.485-0.959-2.355-0.991"/>
		<g>
			<path style="fill:#EEC1BB;" d="M119.082,220.254l2.934,10.38c0.97,3.469,1.928,6.924,2.934,10.34
				c0.497,1.701,1.005,3.39,1.55,5.012c0.26,0.818,0.52,1.622,0.793,2.361l0.402,1.029l0.166,0.383
				c0.027,0.055,0.05,0.113,0.071,0.171c-0.095,0,0.177,0.528,0.568,0.936c0.459,0.48,0.949,0.92,1.467,1.319
				c1.124,0.923,2.508,1.899,3.762,2.836l-1.053,5.091c-1.877,0.08-3.754-0.147-5.571-0.673c-0.998-0.282-1.966-0.685-2.886-1.2
				c-1.195-0.627-2.258-1.525-3.123-2.638c-0.226-0.308-0.431-0.635-0.615-0.976l-0.438-0.818c-0.248-0.488-0.473-0.976-0.674-1.438
				c-0.414-0.936-0.781-1.82-1.183-2.717c-0.686-1.767-1.313-3.521-1.916-5.276c-1.183-3.495-2.366-6.99-3.359-10.551
				c-0.994-3.561-2.035-7.017-2.945-10.551L119.082,220.254z"/>
			<g>
				<path style="fill:#263238;" d="M112.02,203.204c7.969,8.78,10.083,18.811,10.083,18.811l-17.298,4.14
					c0,0-4.786-12.634-2.847-17.257C103.978,204.082,107.111,199.449,112.02,203.204z"/>
				<g style="opacity:0.3;">
					<path d="M113.098,211.411c0.985,1.683,1.323,2.641,1.94,4.579c0.617,1.938,0.956,5.464,1.109,7.286l-3.327,0.959
						C112.949,219.787,112.968,215.858,113.098,211.411z"/>
				</g>
				<path style="fill:#263238;" d="M69.616,224.653l-5.474-18.665c3.463-5.168,20.597-9.139,20.597-9.139l8.781,3.082l2.507-2.465
					c0,0,4.338,0.968,8.053,2.179c4.959,1.617,7.64,2.918,8.823,5.669c0,0,2.069,6.096,0.825,18.659
					c-0.342,3.454,0.046,21.414,1.01,27.347l5.843,18.493c-20.625,16.063-49.496,1.063-49.496,1.063
					c0.927-2.836,4.017-11.545,4.436-14.317c-0.303-3.536,0.119-8.989-1.379-15.181C73.851,240.183,70.118,225.814,69.616,224.653z"
					/>
				<path style="opacity:0.3;" d="M71.35,229.775c0,0,7.91-9.961,6.563-14.103l-8.138,7.614L71.35,229.775z"/>
				<g>
					<path style="fill:#263238;" d="M66.578,204.136c-4.332,1.457-8.648,15.152-8.648,15.152l12.731,8.404
						c0,0,7.456-11.071,6.11-16.793C75.62,206.067,72.077,202.276,66.578,204.136z"/>
				</g>
			</g>
			<g>
				<path style="fill:#EEC1BB;" d="M69.838,227.148c0,0-7.826,16.865-7.693,17.516c0.492,2.401,25.601,0.779,25.601,0.779
					l0.606,6.738c0,0-11.384,3.65-23.102,3.885c-12.091,0.242-17.605-6.097-14.676-13.644c3.127-8.057,8.819-22.168,8.819-22.168
					L69.838,227.148z"/>
				<path style="opacity:0.3;" d="M62.145,244.665c0,0-2.471-0.502-4.973,0.97c0,0,0.245-1.112,2.295-1.873
					c1.252-0.465,3.136-0.351,3.136-0.351L62.145,244.665z"/>
			</g>
			<g>
				<g>
					<g>
						<path style="fill:#EEC1BB;" d="M85.73,244.218c0,0,8.096,1.925,8.866,3.519c0.77,1.594-1.755,1.507-1.755,1.507
							s2.772,0.266,2.818,1.458c0.055,1.431-2.589,1.328-2.589,1.328s2.255,0.31,2.225,1.373c-0.031,1.103-3.024,1.199-3.024,1.199
							s1.546,0.518,1.107,1.246c-0.439,0.727-6.788,1.055-8.676-0.107c-1.888-1.162-2.012-9.325-1.673-11.111
							c0.339-1.787,0.488-2.749,2.687-5.487L85.73,244.218L85.73,244.218z"/>
					</g>
					<g>
						<path style="opacity:0.2;" d="M92.837,249.378c-0.004,0-0.008,0-0.011-0.001l-4.81-0.695c-0.064-0.01-0.11-0.077-0.101-0.15
							c0.009-0.073,0.071-0.126,0.133-0.116l4.81,0.695c0.064,0.01,0.11,0.077,0.101,0.15
							C92.95,249.33,92.897,249.38,92.837,249.378z"/>
					</g>
					<g>
						<path style="opacity:0.2;" d="M92.928,252.16c-0.001,0-0.002,0-0.003,0l-4.674-0.3c-0.065-0.004-0.114-0.067-0.11-0.141
							c0.004-0.074,0.05-0.119,0.125-0.126l4.674,0.3c0.065,0.004,0.114,0.067,0.11,0.141
							C93.046,252.106,92.992,252.162,92.928,252.16z"/>
					</g>
					<g>
						<path style="opacity:0.2;" d="M92.106,254.731l-3.479-0.124c-0.065-0.002-0.116-0.064-0.113-0.138
							c0.003-0.074,0.057-0.132,0.123-0.13l3.479,0.124c0.065,0.002,0.116,0.064,0.113,0.138
							C92.226,254.675,92.171,254.734,92.106,254.731z"/>
					</g>
				</g>
			</g>
			<path style="fill:#407BFF;" d="M132.276,244.754c0.642-7.767,6.631-14.026,14.363-15.009l-1.583,2.638l3.02-1.794l-13.848,17.37
				L132.276,244.754z"/>
			<path style="opacity:0.8;fill:#FFFFFF;enable-background:new    ;" d="M132.276,244.754c0.642-7.767,6.631-14.026,14.363-15.009
				l-1.583,2.638l3.02-1.794l-13.848,17.37L132.276,244.754z"/>
			<path style="fill:#407BFF;" d="M110.58,230.497l4.761-0.145l22.791,7.729l-20.773,31.733l-20.443-5.104
				c-1.165-0.323-1.848-1.529-1.525-2.694c0.048-0.174,0.117-0.341,0.206-0.497l8.256-14.93c0.164-0.295,0.164-0.654,0-0.95
				l-1.121-1.992c-0.236-0.408-0.236-0.911,0-1.319l5.539-10.38C108.742,231.1,109.613,230.552,110.58,230.497z"/>
			<polygon style="fill:#407BFF;" points="138.132,238.08 151.11,229.745 129.77,261.451 117.359,269.813 			"/>
			<polygon style="opacity:0.2;enable-background:new    ;" points="138.132,238.08 151.11,229.745 129.77,261.451 117.359,269.813 
							"/>
			<g>
				<g>
					<path style="fill:#EEC1BB;" d="M135.584,252.826c0,0-5.044-1.322-6.152-0.457c-1.108,0.865,0.409,1.687,0.409,1.687
						s-1.736-0.781-2.254,0.051c-0.622,0.999,0.972,1.852,0.972,1.852s-1.451-0.569-1.871,0.199
						c-0.436,0.796,1.281,1.912,1.281,1.912s-1.121-0.172-1.163,0.499c-0.042,0.672,3.548,3.127,5.135,2.961
						c1.586-0.166,5.022-5.933,5.559-7.324c0.537-1.391,0.482-2.473-0.537-3.441L135.584,252.826L135.584,252.826z"/>
				</g>
				<g>
					<path style="opacity:0.2;" d="M129.788,254.153c0.002,0.001,0.005,0.003,0.007,0.003l3.109,1.189
						c0.042,0.016,0.096-0.016,0.121-0.071c0.025-0.055,0.01-0.115-0.03-0.129l-3.109-1.189c-0.042-0.016-0.096,0.016-0.121,0.071
						C129.742,254.079,129.752,254.133,129.788,254.153z"/>
				</g>
				<g>
					<path style="opacity:0.2;" d="M128.589,256.101c0.001,0,0.001,0.001,0.002,0.001l2.866,1.422
						c0.04,0.02,0.095-0.008,0.123-0.062c0.028-0.054,0.019-0.102-0.022-0.134l-2.866-1.422c-0.04-0.02-0.095,0.008-0.123,0.062
						C128.541,256.022,128.55,256.08,128.589,256.101z"/>
				</g>
				<g>
					<path style="opacity:0.2;" d="M128.012,258.219l2.092,1.13c0.039,0.021,0.095-0.005,0.123-0.059
						c0.029-0.053,0.021-0.114-0.018-0.135l-2.092-1.13c-0.039-0.021-0.094,0.005-0.123,0.059
						C127.964,258.138,127.972,258.198,128.012,258.219z"/>
				</g>
			</g>
			<g>
				
					<rect x="84.372" y="220.254" transform="matrix(-1 -1.224647e-16 1.224647e-16 -1 180.693 446.4103)" style="fill:#407BFF;" width="11.948" height="5.902"/>
				<path style="fill:#FFFFFF;" d="M92.15,223.205c0,0.756,0.613,1.37,1.369,1.37s1.369-0.613,1.369-1.37
					c0-0.756-0.613-1.369-1.369-1.369S92.15,222.449,92.15,223.205z"/>
				
					<rect x="85.987" y="222.706" transform="matrix(-1 -1.224647e-16 1.224647e-16 -1 176.7051 446.4103)" style="fill:#FFFFFF;" width="4.731" height="0.999"/>
			</g>
			<polygon style="fill:#263238;" points="99.263,198.256 95.457,194.569 93.52,199.93 85.064,193.191 80.775,197.894 
				92.361,207.989 101.495,211.411 103.156,204.242 			"/>
			<path style="opacity:0.3;" d="M99.263,198.256c0.27,0.415,0,6.647,0,6.647l-5.743-4.308l-2.124,4.7l-10.206-7.039l10.446,9.102
				l1.883-5.526l6.405,5.526L99.263,198.256z"/>
		</g>
		<circle style="fill:#407BFF;" cx="84.229" cy="179.431" r="1.758"/>
	</g>
</g>
</svg>
